<svg xmlns="http://www.w3.org/2000/svg" width="38.83" height="33.873" viewBox="0 0 38.83 33.873"><linearGradient id="a" gradientUnits="userSpaceOnUse" x1="-1553.22" y1="-243.083" x2="-1544.111" y2="-243.083" gradientTransform="rotate(-12.578 454.846 -7149.114)"><stop offset=".439" stop-color="#ffca17"/><stop offset="1" stop-color="#f7971f"/></linearGradient><path fill="url(#a)" d="M0 32.53c.124-.075 4.647-4.919 4.647-4.919l3.031-2.496-6.117-1.188s-.831-.205-1.049.333C.288 24.806 0 32.53 0 32.53z"/><linearGradient id="b" gradientUnits="userSpaceOnUse" x1="-1550.945" y1="-249.697" x2="-1544.111" y2="-249.697" gradientTransform="rotate(-12.578 454.846 -7149.114)"><stop offset=".439" stop-color="#ffca17"/><stop offset="1" stop-color="#f7971f"/></linearGradient><path fill="url(#b)" d="M7.678 25.115L.757 16.107l-.537 6.41s-.201 1.071.657 1.422c.858.342 6.801 1.176 6.801 1.176z"/><linearGradient id="c" gradientUnits="userSpaceOnUse" x1="-1544.195" y1="-243.695" x2="-1535.391" y2="-243.695" gradientTransform="rotate(-12.578 454.846 -7149.114)"><stop offset="0" stop-color="#f7971f"/><stop offset=".561" stop-color="#ffca17"/></linearGradient><path fill="url(#c)" d="M7.678 25.115s4.375-1.949 5.7-2.395c1.318-.441 2.498-.904 2.498-.904s.107.269-.32.562c-.42.291-4.354 3.337-4.887 3.84-.523.511-1.178 1.538-1.102 1.681.08.119-1.858-.422-1.889-2.784z"/><linearGradient id="d" gradientUnits="userSpaceOnUse" x1="-1550.576" y1="-240.011" x2="-1542.916" y2="-241.951" gradientTransform="rotate(-12.578 454.846 -7149.114)"><stop offset=".439" stop-color="#ffca17"/><stop offset="1" stop-color="#f7971f"/></linearGradient><path fill="url(#d)" d="M2.805 33.873l1.328-5.7s1.063-1.288 1.499-1.665c.45-.387 2.047-1.393 2.047-1.393s.147 1.344.676 1.727c.524.374 1.213 1.057 1.213 1.057l-6.763 5.974z"/><g><linearGradient id="e" gradientUnits="userSpaceOnUse" x1="-1449.414" y1="74.114" x2="-1435.579" y2="74.114" gradientTransform="rotate(-25.418 -838.827 -3202.92)"><stop offset=".439" stop-color="#ea1e51"/><stop offset="1" stop-color="#c42228"/></linearGradient><path fill="url(#e)" d="M18.867 24.586c.165-.165 5.229-8.858 5.229-8.858l3.638-4.714-9.446.304s-1.307-.025-1.447.845c-.152.882 2.026 12.423 2.026 12.423z"/><linearGradient id="f" gradientUnits="userSpaceOnUse" x1="-1445.958" y1="64.064" x2="-1435.579" y2="64.064" gradientTransform="rotate(-25.418 -838.827 -3202.92)"><stop offset=".439" stop-color="#ea1e51"/><stop offset="1" stop-color="#c42228"/></linearGradient><path fill="url(#f)" d="M27.734 11.014L14.446 0l1.361 9.675s.065 1.657 1.467 1.878c1.389.222 10.46-.539 10.46-.539z"/><linearGradient id="g" gradientUnits="userSpaceOnUse" x1="-1435.703" y1="73.181" x2="-1422.326" y2="73.181" gradientTransform="rotate(-25.418 -838.827 -3202.92)"><stop offset="0" stop-color="#c42228"/><stop offset=".561" stop-color="#ea1e51"/></linearGradient><path fill="url(#g)" d="M27.734 11.014s5.823-4.371 7.638-5.48c1.814-1.1 3.398-2.169 3.398-2.169s.252.353-.277.931c-.539.571-5.34 6.404-5.951 7.339-.602.926-1.219 2.677-1.063 2.843.162.165-2.898.008-3.745-3.464z"/><linearGradient id="h" gradientUnits="userSpaceOnUse" x1="-1445.396" y1="78.772" x2="-1433.748" y2="75.823" gradientTransform="rotate(-25.418 -838.827 -3202.92)"><stop offset=".439" stop-color="#ea1e51"/><stop offset="1" stop-color="#c42228"/></linearGradient><path fill="url(#h)" d="M23.47 25.617l.051-8.89s1.137-2.265 1.654-2.964c.54-.735 2.56-2.75 2.56-2.75s.681 1.934 1.582 2.316c.907.371 2.162 1.146 2.162 1.146L23.47 25.617z"/></g><g><linearGradient id="i" gradientUnits="userSpaceOnUse" x1="-1435.183" y1="68.228" x2="-1428.027" y2="68.228" gradientTransform="rotate(-30.316 -822.005 -2612.234)"><stop offset=".439" stop-color="#4169b0"/><stop offset="1" stop-color="#4478bb"/></linearGradient><path fill="url(#i)" d="M3.314 13.975c.08-.088 2.304-4.787 2.304-4.787l1.669-2.594-4.861.574s-.667.045-.706.499c-.036.455 1.594 6.308 1.594 6.308z"/><linearGradient id="j" gradientUnits="userSpaceOnUse" x1="-1433.392" y1="63.032" x2="-1428.027" y2="63.032" gradientTransform="rotate(-30.316 -822.005 -2612.234)"><stop offset=".439" stop-color="#4169b0"/><stop offset="1" stop-color="#4478bb"/></linearGradient><path fill="url(#j)" d="M7.288 6.594L-.049 1.506l1.132 4.918s.109.854.837.904c.726.059 5.368-.734 5.368-.734z"/><linearGradient id="k" gradientUnits="userSpaceOnUse" x1="-1428.092" y1="67.745" x2="-1421.174" y2="67.745" gradientTransform="rotate(-30.316 -822.005 -2612.234)"><stop offset="0" stop-color="#4478bb"/><stop offset=".561" stop-color="#4169b0"/></linearGradient><path fill="url(#k)" d="M7.288 6.594s2.805-2.52 3.688-3.166c.886-.645 1.656-1.269 1.656-1.269s.149.175-.102.491c-.248.324-2.467 3.542-2.738 4.049-.271.506-.514 1.432-.426 1.519.087.073-1.491.123-2.078-1.624z"/><linearGradient id="l" gradientUnits="userSpaceOnUse" x1="-1433.104" y1="70.639" x2="-1427.086" y2="69.115" gradientTransform="rotate(-30.316 -822.005 -2612.234)"><stop offset=".439" stop-color="#4169b0"/><stop offset="1" stop-color="#4478bb"/></linearGradient><path fill="url(#l)" d="M5.733 14.305l-.37-4.58s.494-1.221.727-1.603c.242-.403 1.198-1.528 1.198-1.528s.434.963.917 1.118c.485.16 1.161.506 1.161.506l-3.633 6.087z"/></g></svg>