<?xml version="1.0" encoding="utf-8"?>
<!-- Generator: Adobe Illustrator 16.0.0, SVG Export Plug-In . SVG Version: 6.00 Build 0)  -->
<!DOCTYPE svg PUBLIC "-//W3C//DTD SVG 1.1//EN" "http://www.w3.org/Graphics/SVG/1.1/DTD/svg11.dtd">
<svg version="1.1" id="Capa_1" xmlns="http://www.w3.org/2000/svg" xmlns:xlink="http://www.w3.org/1999/xlink" x="0px" y="0px"
	 width="169.212px" height="70.446px" viewBox="0 0 169.212 70.446" enable-background="new 0 0 169.212 70.446"
	 xml:space="preserve">
<g>
	<path fill="#459B4B" d="M20.847,26.722c0-1.284-0.183-2.435-0.546-3.427c-0.366-0.992-0.844-1.849-1.442-2.562
		c-0.573-0.692-1.231-1.277-1.948-1.743c-0.678-0.439-1.349-0.8-2-1.073c-0.626-0.257-1.219-0.465-1.755-0.604
		c-0.499-0.131-0.865-0.221-1.113-0.279c-1.039-0.272-2.062-0.57-3.04-0.887c-0.883-0.279-1.674-0.651-2.347-1.113
		c-0.611-0.416-1.098-0.937-1.458-1.561c-0.344-0.58-0.518-1.379-0.518-2.365c0-0.819,0.152-1.576,0.44-2.242
		c0.285-0.661,0.683-1.229,1.179-1.688c0.521-0.469,1.135-0.834,1.836-1.092c0.71-0.27,1.488-0.402,2.304-0.402
		c1.015,0,1.867,0.188,2.53,0.561c0.66,0.373,1.216,0.896,1.647,1.557c0.422,0.658,0.7,1.494,0.917,2.5
		c0.1,0.475,0.193,1.476,0.193,1.476l4.208,0.007c0,0-0.378-2.55-0.778-3.625c-0.574-1.502-1.33-2.742-2.239-3.67
		c-0.942-0.951-1.981-1.646-3.104-2.065c-1.107-0.409-2.214-0.62-3.293-0.62c-1.281,0-2.518,0.202-3.682,0.602
		C5.623,2.824,4.549,3.44,3.646,4.238C2.701,5.09,1.787,6.09,1.262,7.219C0.67,8.492,0.201,9.832,0.201,11.191v0.143
		c0,1.563,0.586,3.057,1.374,4.319c0.648,1.036,1.641,1.957,2.708,2.67c0.948,0.63,2.01,1.126,3.073,1.458
		c0.958,0.305,1.817,0.539,2.509,0.717c0.737,0.189,1.576,0.422,2.463,0.699c0.781,0.236,1.528,0.6,2.227,1.08
		c0.654,0.447,1.209,1.051,1.654,1.793c0.414,0.691,0.627,1.643,0.627,2.818c0,0.912-0.182,1.737-0.532,2.457
		c-0.372,0.75-0.856,1.395-1.452,1.92c-0.604,0.536-1.303,0.948-2.078,1.239c-0.787,0.292-1.603,0.441-2.416,0.441
		c-0.539,0-1.184-0.05-1.926-0.152c-0.639-0.091-1.264-0.308-1.863-0.651c-0.59-0.338-1.133-0.854-1.606-1.535
		c-0.474-0.67-0.8-1.653-0.964-2.906L0,27.986c0.127,1.685,0.561,3.133,1.281,4.289c0.703,1.129,1.578,2.057,2.599,2.732
		c0.985,0.67,2.09,1.15,3.278,1.42c1.125,0.27,2.217,0.4,3.24,0.4c1.321,0,2.617-0.242,3.87-0.725
		c1.253-0.479,2.379-1.179,3.347-2.063c0.971-0.887,1.761-1.96,2.338-3.188C20.549,29.604,20.847,28.213,20.847,26.722z"/>
	<path fill="#459B4B" d="M34.24,2.408l-14.548,33.83h4.333l1.938-3.959h20.055l1.901,3.959h4.332L37.698,2.408H34.24z
		 M44.297,27.894H27.678l8.271-19.587L44.297,27.894z"/>
	<polygon fill="#459B4B" points="75.893,29.113 56.639,2.408 52.984,2.408 52.984,36.238 56.408,36.238 56.408,9.045 76.641,36.238 
		80.285,36.238 80.285,2.408 75.893,2.408 	"/>
	<path fill="#459B4B" d="M104.989,6.834c-1.467-1.458-3.309-2.568-5.455-3.338c-2.041-0.737-4.416-1.088-7.074-1.088H82.213v33.83
		h10.247c2.52,0,4.896-0.328,7.074-1.109c2.084-0.756,3.924-1.869,5.455-3.387c1.488-1.473,2.641-3.283,3.424-5.404
		c0.771-2.085,1.166-4.447,1.166-7.043c0-2.605-0.395-4.975-1.166-7.059C107.635,10.127,106.481,8.313,104.989,6.834z M92.459,32.49
		h-6.18V5.943h6.18c1.889,0,3.783,0.345,5.65,1.029c1.459,0.537,2.857,1.461,4.055,2.667c1.084,1.108,1.934,2.478,2.508,4.085
		c0.596,1.644,0.893,3.551,0.893,5.66c0,2.084-0.301,3.966-0.904,5.591c-0.598,1.604-1.455,2.971-2.547,4.05
		c-1.145,1.135-2.512,1.97-4.063,2.531C96.299,32.195,94.42,32.49,92.459,32.49z"/>
	<path fill="#459B4B" d="M151.737,2.408h-3.459l-14.553,33.83h4.336l1.938-3.959h20.057l1.906,3.959h4.33L151.737,2.408z
		 M158.333,27.894h-16.617l8.279-19.587L158.333,27.894z"/>
	<g>
		<path fill="#187E42" d="M60.77,43.665c-1.422-1.387-3.1-2.469-4.99-3.242c-1.887-0.766-3.924-1.156-6.048-1.156
			c-2.153,0-4.192,0.391-6.069,1.162c-1.87,0.768-3.545,1.85-4.969,3.236c-1.42,1.379-2.558,3.051-3.367,4.959
			c-0.809,1.906-1.223,4.002-1.223,6.232s0.414,4.33,1.223,6.24c0.81,1.9,1.947,3.572,3.367,4.955
			c1.424,1.381,3.099,2.473,4.966,3.238c1.88,0.771,3.919,1.156,6.072,1.156c2.124,0,4.161-0.385,6.048-1.156
			c1.891-0.764,3.568-1.855,4.99-3.238c1.42-1.383,2.558-3.055,3.367-4.959c0.813-1.906,1.225-4.006,1.225-6.236
			s-0.412-4.326-1.225-6.232C63.327,46.719,62.189,45.043,60.77,43.665z M49.731,66.477c-1.612,0-3.136-0.299-4.528-0.875
			c-1.396-0.59-2.636-1.404-3.665-2.432c-1.039-1.023-1.867-2.26-2.46-3.662c-0.592-1.404-0.893-2.971-0.893-4.652
			c0-1.678,0.301-3.244,0.893-4.648c0.596-1.408,1.421-2.643,2.46-3.662c1.036-1.029,2.27-1.842,3.665-2.426
			c1.393-0.586,2.916-0.887,4.528-0.887c1.585,0,3.099,0.301,4.483,0.887c1.399,0.584,2.64,1.396,3.676,2.426
			c1.035,1.02,1.867,2.26,2.478,3.672c0.599,1.4,0.909,2.965,0.909,4.639c0,1.682-0.311,3.238-0.909,4.641
			c-0.61,1.41-1.442,2.65-2.478,3.674c-1.036,1.027-2.27,1.842-3.676,2.432C52.83,66.178,51.316,66.477,49.731,66.477z"/>
		<path fill="#187E42" d="M77.465,59.661c1.699,0,3.191-0.348,4.423-1.029c1.197-0.664,2.184-1.5,2.943-2.479
			c0.747-0.959,1.299-2.025,1.65-3.166c0.336-1.105,0.502-2.174,0.502-3.176v-0.23c-0.027-0.898-0.164-1.789-0.406-2.658
			c-0.232-0.85-0.552-1.652-0.952-2.385c-0.403-0.756-0.899-1.436-1.471-2.021c-0.582-0.596-1.225-1.082-1.938-1.471
			c-0.366-0.182-0.779-0.352-1.275-0.535c-0.443-0.164-0.977-0.299-1.68-0.418c-0.617-0.113-1.278-0.197-2.141-0.252
			c-0.338-0.025-0.723-0.068-1.203-0.068c-0.255,0-9.443,0-9.443,0v30.295h4.068v-9.619l11.236,9.619h5.917L75.861,59.704
			L77.465,59.661z M76.802,55.749l-0.794,0.082h-5.465V43.84h4.5c0.248,0,0.497-0.012,0.729-0.023
			c0.204-0.01,0.409-0.023,0.595-0.023h0.096c0.203,0.008,0.389,0.008,0.568,0.008c0.412,0,0.772,0.006,1.064,0.039
			c0.461,0.066,0.887,0.154,1.279,0.281c0.336,0.105,0.658,0.262,0.959,0.453c0.816,0.531,1.451,1.27,1.879,2.184
			c0.459,0.979,0.688,1.951,0.688,2.902c0,0.906-0.142,1.756-0.421,2.531c-0.273,0.727-0.748,1.471-1.427,2.203
			c-0.338,0.271-0.676,0.492-1.005,0.666c-0.357,0.184-0.72,0.322-1.089,0.416c-0.403,0.104-0.804,0.166-1.259,0.195
			c-0.117,0.006-0.236,0.021-0.348,0.033C77.149,55.725,76.963,55.749,76.802,55.749z"/>
		<polygon fill="#187E42" points="86.279,43.84 93.241,43.84 93.241,70.067 97.522,70.067 97.522,43.84 105.122,43.84 
			105.122,39.557 86.279,39.557 		"/>
		<rect x="106.512" y="39.557" fill="#187E42" width="4.18" height="30.51"/>
		<polygon fill="#187E42" points="134.01,39.557 112.833,39.557 112.833,43.84 127.098,43.84 112.254,70.067 133.497,70.067 
			133.497,66.215 119.17,66.215 		"/>
	</g>
	<g>
		<g>
			<g>
				
					<linearGradient id="SVGID_1_" gradientUnits="userSpaceOnUse" x1="75.9844" y1="185.8179" x2="83.3491" y2="185.8179" gradientTransform="matrix(0.9996 -0.0271 0.0271 0.9996 59.5346 -118.2884)">
					<stop  offset="0.4386" style="stop-color:#EAC034"/>
					<stop  offset="1" style="stop-color:#D88E35"/>
				</linearGradient>
				<path fill="url(#SVGID_1_)" d="M140.614,68.708c0.114-0.039,4.447-3.184,4.447-3.184l2.793-1.51l-4.67-1.891
					c0,0-0.627-0.285-0.881,0.102C142.04,62.629,140.614,68.708,140.614,68.708z"/>
				
					<linearGradient id="SVGID_2_" gradientUnits="userSpaceOnUse" x1="77.8281" y1="180.4731" x2="83.3491" y2="180.4731" gradientTransform="matrix(0.9996 -0.0271 0.0271 0.9996 59.5346 -118.2884)">
					<stop  offset="0.4386" style="stop-color:#EAC034"/>
					<stop  offset="1" style="stop-color:#D88E35"/>
				</linearGradient>
				<path fill="url(#SVGID_2_)" d="M147.854,64.014l-4.1-8.215l-1.412,5.006c0,0-0.324,0.814,0.297,1.227
					C143.266,62.431,147.854,64.014,147.854,64.014z"/>
				
					<linearGradient id="SVGID_3_" gradientUnits="userSpaceOnUse" x1="83.2827" y1="185.3237" x2="90.3921" y2="185.3237" gradientTransform="matrix(0.9996 -0.0271 0.0271 0.9996 59.5346 -118.2884)">
					<stop  offset="0" style="stop-color:#D88E35"/>
					<stop  offset="0.5614" style="stop-color:#EAC034"/>
				</linearGradient>
				<path fill="url(#SVGID_3_)" d="M147.854,64.014c0,0,3.769-0.871,4.893-1.018c1.113-0.148,2.115-0.334,2.115-0.334
					s0.047,0.229-0.336,0.396c-0.381,0.167-3.975,1.97-4.469,2.29c-0.496,0.328-1.176,1.043-1.137,1.167
					C148.967,66.624,147.518,65.889,147.854,64.014z"/>
				
					<linearGradient id="SVGID_4_" gradientUnits="userSpaceOnUse" x1="78.1265" y1="188.2983" x2="84.3115" y2="186.732" gradientTransform="matrix(0.9996 -0.0271 0.0271 0.9996 59.5346 -118.2884)">
					<stop  offset="0.4386" style="stop-color:#EAC034"/>
					<stop  offset="1" style="stop-color:#D88E35"/>
				</linearGradient>
				<path fill="url(#SVGID_4_)" d="M142.637,70.203l1.929-4.313c0,0,1.043-0.861,1.452-1.085c0.417-0.236,1.836-0.79,1.836-0.79
					s-0.091,1.088,0.27,1.475c0.358,0.371,0.797,1.026,0.797,1.026L142.637,70.203z"/>
			</g>
			<g>
				
					<linearGradient id="SVGID_5_" gradientUnits="userSpaceOnUse" x1="40.9106" y1="785.5903" x2="52.0962" y2="785.5903" gradientTransform="matrix(0.9032 -0.4292 0.4292 0.9032 -223.2106 -637.8949)">
					<stop  offset="0.4386" style="stop-color:#C13353"/>
					<stop  offset="1" style="stop-color:#B82C2B"/>
				</linearGradient>
				<path fill="url(#SVGID_5_)" d="M153.076,58.637c0.136-0.141,4.226-7.157,4.226-7.157l2.945-3.815l-7.637,0.249
					c0,0-1.053-0.022-1.167,0.68C151.321,49.309,153.076,58.637,153.076,58.637z"/>
				
					<linearGradient id="SVGID_6_" gradientUnits="userSpaceOnUse" x1="43.7085" y1="777.4653" x2="52.0962" y2="777.4653" gradientTransform="matrix(0.9032 -0.4292 0.4292 0.9032 -223.2106 -637.8949)">
					<stop  offset="0.4386" style="stop-color:#C13353"/>
					<stop  offset="1" style="stop-color:#B82C2B"/>
				</linearGradient>
				<path fill="url(#SVGID_6_)" d="M160.247,47.665l-10.742-8.9l1.105,7.821c0,0,0.049,1.337,1.184,1.511
					C152.913,48.282,160.247,47.665,160.247,47.665z"/>
				
					<linearGradient id="SVGID_7_" gradientUnits="userSpaceOnUse" x1="51.9961" y1="784.8345" x2="62.8052" y2="784.8345" gradientTransform="matrix(0.9032 -0.4292 0.4292 0.9032 -223.2106 -637.8949)">
					<stop  offset="0" style="stop-color:#B82C2B"/>
					<stop  offset="0.5614" style="stop-color:#C13353"/>
				</linearGradient>
				<path fill="url(#SVGID_7_)" d="M160.247,47.665c0,0,4.701-3.532,6.17-4.422c1.465-0.895,2.746-1.76,2.746-1.76
					s0.207,0.285-0.223,0.754c-0.434,0.463-4.318,5.178-4.807,5.932c-0.492,0.75-0.984,2.163-0.861,2.298
					C163.4,50.594,160.93,50.47,160.247,47.665z"/>
				
					<linearGradient id="SVGID_8_" gradientUnits="userSpaceOnUse" x1="44.1621" y1="789.356" x2="53.5763" y2="786.9719" gradientTransform="matrix(0.9032 -0.4292 0.4292 0.9032 -223.2106 -637.8949)">
					<stop  offset="0.4386" style="stop-color:#C13353"/>
					<stop  offset="1" style="stop-color:#B82C2B"/>
				</linearGradient>
				<path fill="url(#SVGID_8_)" d="M156.799,59.471l0.039-7.188c0,0,0.926-1.831,1.336-2.391c0.437-0.597,2.072-2.228,2.072-2.228
					s0.547,1.564,1.271,1.877c0.743,0.293,1.755,0.925,1.755,0.925L156.799,59.471z"/>
			</g>
			<g>
				
					<linearGradient id="SVGID_9_" gradientUnits="userSpaceOnUse" x1="-14.3149" y1="902.3296" x2="-8.0786" y2="902.3296" gradientTransform="matrix(0.8633 -0.5048 0.5048 0.8633 -306.1624 -734.6993)">
					<stop  offset="0.4386" style="stop-color:#4064A5"/>
					<stop  offset="1" style="stop-color:#4371AE"/>
				</linearGradient>
				<path fill="url(#SVGID_9_)" d="M138.391,53.93c0.066-0.079,2.004-4.18,2.004-4.18l1.455-2.26l-4.235,0.506
					c0,0-0.58,0.039-0.61,0.434C136.974,48.83,138.391,53.93,138.391,53.93z"/>
				
					<linearGradient id="SVGID_10_" gradientUnits="userSpaceOnUse" x1="-12.752" y1="897.7964" x2="-8.0786" y2="897.7964" gradientTransform="matrix(0.8633 -0.5048 0.5048 0.8633 -306.1624 -734.6993)">
					<stop  offset="0.4386" style="stop-color:#4064A5"/>
					<stop  offset="1" style="stop-color:#4371AE"/>
				</linearGradient>
				<path fill="url(#SVGID_10_)" d="M141.85,47.491l-6.39-4.433l0.985,4.284c0,0,0.095,0.746,0.725,0.789
					C137.806,48.19,141.85,47.491,141.85,47.491z"/>
				
					<linearGradient id="SVGID_11_" gradientUnits="userSpaceOnUse" x1="-8.1343" y1="901.9067" x2="-2.1006" y2="901.9067" gradientTransform="matrix(0.8633 -0.5048 0.5048 0.8633 -306.1624 -734.6993)">
					<stop  offset="0" style="stop-color:#4371AE"/>
					<stop  offset="0.5614" style="stop-color:#4064A5"/>
				</linearGradient>
				<path fill="url(#SVGID_11_)" d="M141.85,47.491c0,0,2.448-2.195,3.22-2.758c0.771-0.561,1.444-1.108,1.444-1.108
					s0.127,0.153-0.089,0.429c-0.214,0.286-2.147,3.092-2.386,3.53c-0.236,0.439-0.452,1.252-0.373,1.325
					C143.742,48.971,142.364,49.015,141.85,47.491z"/>
				
					<linearGradient id="SVGID_12_" gradientUnits="userSpaceOnUse" x1="-12.5015" y1="904.4282" x2="-7.256" y2="903.0999" gradientTransform="matrix(0.8633 -0.5048 0.5048 0.8633 -306.1624 -734.6993)">
					<stop  offset="0.4386" style="stop-color:#4064A5"/>
					<stop  offset="1" style="stop-color:#4371AE"/>
				</linearGradient>
				<path fill="url(#SVGID_12_)" d="M140.5,54.215l-0.324-3.99c0,0,0.43-1.066,0.635-1.396c0.207-0.354,1.039-1.339,1.039-1.339
					s0.381,0.844,0.799,0.98c0.43,0.139,1.018,0.438,1.018,0.438L140.5,54.215z"/>
			</g>
		</g>
	</g>
	<path fill="#C54B63" d="M112.512,34.559l-2.506,3.985h-3.123l2.33-3.985H112.512z"/>
	<g>
		<path fill="none" d="M121.924,20.688c0.248-0.035,0.49,0.008,0.723-0.01c0.516-0.037,1.018-0.172,1.502-0.299
			c0.391-0.092,0.809-0.264,1.314-0.53c0.387-0.194,0.797-0.474,1.225-0.824c0.822-0.881,1.402-1.776,1.721-2.661
			c0.342-0.928,0.512-1.943,0.512-3.014c0-1.145-0.277-2.314-0.82-3.474c-0.529-1.126-1.27-1.989-2.271-2.642
			c-0.375-0.24-0.771-0.426-1.184-0.556c-0.457-0.146-0.969-0.258-1.52-0.326c-0.195-0.028-0.4-0.064-0.611-0.096
			c-0.418-0.071-0.854-0.137-1.299-0.146c-0.357-0.009-0.715-0.058-1.096-0.089c-0.453-0.037-0.918-0.078-1.395-0.078h-4.5v14.777
			h6.488C121.127,20.721,121.528,20.727,121.924,20.688z"/>
		<polygon fill="#459B4B" points="114.225,36.238 114.225,33.895 112.555,36.238 		"/>
		<path fill="#459B4B" d="M127.42,36.238h5.771l-13.549-11.774h2.715c1.887,0,3.539-0.382,4.908-1.138
			c1.33-0.741,2.428-1.662,3.268-2.751c0.83-1.073,1.457-2.255,1.842-3.523c0.379-1.243,0.584-2.435,0.584-3.542v-0.238
			c0-0.899-0.162-1.876-0.469-2.975c-0.268-0.945-0.623-1.838-1.066-2.67c-0.451-0.84-1.012-1.597-1.646-2.251
			c-0.643-0.657-1.344-1.185-2.076-1.591l-0.045-0.025c-0.424-0.204-0.902-0.412-1.434-0.607c-0.518-0.181-1.123-0.338-1.873-0.469
			c-0.605-0.108-1.35-0.164-2.412-0.238c-0.773-0.05-1.676-0.037-2.693-0.037h-8.553v18.924v12.342h3.533v-8.688L127.42,36.238z
			 M114.225,5.943h4.5c0.477,0,0.941,0.041,1.395,0.078c0.381,0.031,0.738,0.064,1.096,0.068c0.445,0.01,0.881,0.083,1.299,0.157
			c0.211,0.034,0.416,0.075,0.611,0.097c0.551,0.074,1.063,0.186,1.52,0.328c0.412,0.134,0.809,0.322,1.184,0.563
			c1.002,0.652,1.742,1.516,2.271,2.642c0.543,1.159,0.82,2.329,0.82,3.474c0,1.07-0.17,2.086-0.512,3.014
			c-0.318,0.885-0.898,1.78-1.721,2.654c-0.428,0.357-0.838,0.637-1.225,0.831c-0.506,0.267-0.924,0.435-1.314,0.53
			c-0.484,0.125-0.986,0.249-1.502,0.289c-0.232,0.02-0.475-0.016-0.723,0.02c-0.396,0.039-0.797,0.033-1.211,0.033h-6.488V5.943z"
			/>
	</g>
</g>
</svg>
