<svg xmlns="http://www.w3.org/2000/svg" width="106.488" height="72.045" viewBox="0 0 106.488 72.045"><g fill="#FFF"><path d="M83.064 51.61L72.58 12.49l-.699-2.607a5.4 5.4 0 0 0-6.613-3.817c-2.33.622-3.867 2.685-3.971 4.972L4.515 41.862c-.659-.615-1.58-.927-2.515-.68a2.702 2.702 0 0 0-1.907 3.309l1.046 3.913 2.096 7.824 1.046 3.913a2.69 2.69 0 0 0 3.309 1.908c.936-.243 1.579-.978 1.842-1.839l4.308-.115c1.195 6.779 7.112 11.95 14.229 11.95 1.291 0 2.557-.167 3.77-.491a14.446 14.446 0 0 0 6.457-3.743c2.311-2.313 3.678-5.277 4.065-8.469l31.755-.829c1.234 1.934 3.601 2.947 5.931 2.324a5.405 5.405 0 0 0 3.818-6.617l-.701-2.61zM34.376 63.989a8.965 8.965 0 0 1-6.41 2.658c-4.173 0-7.658-2.854-8.709-6.695l17.56-.467a8.949 8.949 0 0 1-2.441 4.504zM13.454 49.294l50.469-27.395 6.935 25.887-57.404 1.508zM91.07 31.296l13.038-3.493a2.698 2.698 0 0 0 1.911-3.308 2.7 2.7 0 0 0-3.305-1.911l-13.041 3.497a2.699 2.699 0 0 0 1.397 5.215zM104.486 48.345l-13.038-3.496a2.697 2.697 0 0 0-3.309 1.906 2.704 2.704 0 0 0 1.911 3.313l13.037 3.493c.475.127.953.12 1.395 0a2.717 2.717 0 0 0 1.914-1.911 2.7 2.7 0 0 0-1.91-3.305zM82.014 14.854a2.695 2.695 0 0 0 1.206-.699l9.548-9.545a2.705 2.705 0 0 0 0-3.82 2.705 2.705 0 0 0-3.822 0l-9.548 9.549a2.705 2.705 0 0 0 0 3.82 2.725 2.725 0 0 0 2.616.695z"/></g></svg>