<svg xmlns="http://www.w3.org/2000/svg" width="35.333" height="25.396" viewBox="0 0 35.333 25.396"><g fill="#FFF"><path d="M19.875 9.938h-4.417v8.833h-3.312l5.521 6.625 5.521-6.625h-3.313z"/><path d="M30.459 9.067a7.18 7.18 0 0 0-8.758-4.357A9.927 9.927 0 0 0 13.25 0C7.835 0 3.43 4.333 3.315 9.72A6.628 6.628 0 0 0 0 15.458a6.627 6.627 0 0 0 6.625 6.625h4.969l-1.841-2.208H6.622a4.419 4.419 0 0 1-1.005-8.718 7.728 7.728 0 0 1 7.633-8.949 7.734 7.734 0 0 1 7.401 5.494 4.968 4.968 0 0 1 8.027 3.34h.033a4.417 4.417 0 0 1 0 8.833H25.58l-1.841 2.208h4.969a6.63 6.63 0 0 0 6.625-6.625 6.628 6.628 0 0 0-4.874-6.391z"/></g></svg>