<svg xmlns="http://www.w3.org/2000/svg" width="54.092" height="55.077" viewBox="0 0 54.092 55.077"><radialGradient id="a" cx="-372.712" cy="-51.88" r="2.603" gradientTransform="matrix(0 -1 11.042 0 600.852 -320.07)" gradientUnits="userSpaceOnUse"><stop offset="0" stop-color="#0f0600" stop-opacity=".95"/><stop offset=".296" stop-color="#0f0600" stop-opacity=".825"/><stop offset="1" stop-color="#0f0600" stop-opacity="0"/></radialGradient><ellipse opacity=".25" fill="url(#a)" cx="27.995" cy="52.642" rx="27.993" ry="2.435"/><g><path fill="#FFF" d="M1.896 7.931v36.333a7.932 7.932 0 0 0 7.932 7.933h36.333a7.933 7.933 0 0 0 7.932-7.933V7.931A7.932 7.932 0 0 0 46.161 0H9.828a7.93 7.93 0 0 0-7.932 7.931z"/><path opacity=".7" fill="#60CAEF" d="M50.083 41.481a6.715 6.715 0 0 1-6.714 6.715H12.617a6.714 6.714 0 0 1-6.713-6.715V10.729a6.714 6.714 0 0 1 6.713-6.714H43.37a6.715 6.715 0 0 1 6.714 6.714v30.752z"/><path fill="#FFF" d="M43.777 18.02a11.535 11.535 0 0 1-3.324.911 5.808 5.808 0 0 0 2.545-3.203 11.528 11.528 0 0 1-3.676 1.406 5.79 5.79 0 0 0-9.863 5.279 16.423 16.423 0 0 1-11.931-6.049 5.777 5.777 0 0 0-.783 2.912 5.782 5.782 0 0 0 2.574 4.816 5.777 5.777 0 0 1-2.621-.725v.074a5.79 5.79 0 0 0 4.642 5.674 5.767 5.767 0 0 1-2.613.1 5.793 5.793 0 0 0 5.407 4.02 11.608 11.608 0 0 1-7.189 2.479c-.467 0-.927-.028-1.379-.081a16.398 16.398 0 0 0 8.873 2.599c10.645 0 16.466-8.818 16.466-16.467 0-.249-.005-.5-.015-.75a11.814 11.814 0 0 0 2.887-2.995z"/></g></svg>