<svg xmlns="http://www.w3.org/2000/svg" width="53.646" height="56.082" viewBox="0 0 53.646 56.082"><radialGradient id="a" cx="-372.615" cy="-53.872" r="2.603" gradientTransform="matrix(0 -1 11.042 0 620.954 -320.167)" gradientUnits="userSpaceOnUse"><stop offset="0" stop-color="#0f0600" stop-opacity=".95"/><stop offset=".296" stop-color="#0f0600" stop-opacity=".825"/><stop offset="1" stop-color="#0f0600" stop-opacity="0"/></radialGradient><ellipse opacity=".25" fill="url(#a)" cx="26.099" cy="52.448" rx="27.995" ry="2.435"/><g><radialGradient id="b" cx="-373.815" cy="-51.977" r="2.603" gradientTransform="matrix(0 -1 11.042 0 601.93 -320.167)" gradientUnits="userSpaceOnUse"><stop offset="0" stop-color="#0f0600" stop-opacity=".95"/><stop offset=".296" stop-color="#0f0600" stop-opacity=".825"/><stop offset="1" stop-color="#0f0600" stop-opacity="0"/></radialGradient><ellipse opacity=".25" fill="url(#b)" cx="27.994" cy="53.648" rx="27.992" ry="2.434"/><g><path fill="#FFF" d="M1.449 9.08v36.333a7.93 7.93 0 0 0 7.932 7.931h36.333a7.931 7.931 0 0 0 7.933-7.931V9.08a7.932 7.932 0 0 0-7.933-7.932H9.381A7.932 7.932 0 0 0 1.449 9.08z"/><path fill="#BC1B1B" d="M49.724 42.775a6.74 6.74 0 0 1-6.74 6.74H12.111a6.74 6.74 0 0 1-6.739-6.74V11.904a6.74 6.74 0 0 1 6.739-6.74h30.872a6.74 6.74 0 0 1 6.74 6.74v30.871z"/><path fill="#FFF" d="M24.306 10.613h-1.931l-1.302 5.006-1.354-5.006h-2.011c.402 1.182.822 2.369 1.225 3.553.611 1.775.994 3.115 1.166 4.031v5.162h1.909v-5.162l2.298-7.584zm5.101 9.672v-3.328c0-1.016-.174-1.756-.534-2.237-.478-.648-1.146-.975-2.008-.975-.857 0-1.529.326-2.004.975-.368.481-.54 1.222-.54 2.237v3.328c0 1.009.172 1.756.54 2.234.475.646 1.146.973 2.004.973.861 0 1.53-.326 2.008-.973.36-.478.534-1.225.534-2.234zm-1.721.324c0 .878-.266 1.318-.82 1.318-.557 0-.823-.44-.823-1.318v-3.997c0-.879.267-1.317.823-1.317.555 0 .82.438.82 1.317v3.997zm8.087 2.75v-9.497h-1.722v7.259c-.384.539-.745.807-1.089.807-.231 0-.365-.137-.402-.404-.021-.055-.021-.266-.021-.669v-6.992h-1.716v7.51c0 .669.06 1.124.153 1.413.17.482.553.707 1.108.707.627 0 1.28-.383 1.967-1.168v1.035h1.722zM41.349 34.889c0 2.197-.001 4.529-.494 6.662-.345 1.499-1.571 2.604-3.046 2.771-3.495.388-7.032.391-10.555.388-3.521.003-7.058 0-10.553-.388-1.477-.168-2.702-1.272-3.047-2.771-.49-2.133-.49-4.465-.49-6.662 0-2.199.006-4.527.497-6.664.344-1.497 1.569-2.604 3.045-2.766 3.495-.393 7.032-.394 10.555-.393 3.52-.001 7.058 0 10.554.393 1.477.162 2.702 1.269 3.046 2.766.49 2.136.488 4.464.488 6.664z"/><path fill="#BC1B1B" d="M21.203 30.148v-1.777h-5.939v1.777h2.004v10.838h1.895V30.148h2.04zm3.442 10.838v-1.024c-.676.776-1.318 1.153-1.946 1.153-.548 0-.929-.221-1.096-.698-.095-.286-.151-.733-.151-1.397v-7.434h1.702v6.922c0 .398 0 .605.015.661.043.265.172.397.4.397.341 0 .701-.264 1.076-.795v-7.186h1.705v9.4h-1.705zm6.472-2.685c0 .85-.251 1.266-.741 1.266-.28 0-.563-.133-.849-.416V33.42c.285-.28.568-.415.849-.415.49 0 .741.437.741 1.283v4.013zm1.703-.135v-3.744c0-.889-.059-1.513-.172-1.89-.229-.704-.684-1.062-1.361-1.062-.626 0-1.21.344-1.76 1.02v-4.119h-1.703v12.615h1.703v-.912c.568.705 1.153 1.041 1.76 1.041.678 0 1.133-.357 1.361-1.053.114-.4.172-1.025.172-1.896zm4.726-2.987h-1.702v-.868c0-.87.283-1.307.854-1.307.564 0 .849.437.849 1.307v.868zm1.704 2.8v-.249h-1.74c0 .684-.021 1.061-.036 1.153-.098.455-.343.683-.762.683-.585 0-.868-.433-.868-1.305v-1.664h3.406V34.65c0-1.006-.173-1.741-.529-2.216-.477-.644-1.154-.964-2.009-.964-.868 0-1.548.32-2.039.964-.364.475-.526 1.21-.526 2.216v3.293c0 .997.185 1.74.547 2.209.49.643 1.168.963 2.062.963.89 0 1.587-.336 2.06-1.018a2.44 2.44 0 0 0 .397-1.021c.014-.17.037-.551.037-1.097z"/></g></g></svg>