<?xml version="1.0" encoding="utf-8"?>
<!-- Generator: Adobe Illustrator 16.0.0, SVG Export Plug-In . SVG Version: 6.00 Build 0)  -->
<!DOCTYPE svg PUBLIC "-//W3C//DTD SVG 1.1//EN" "http://www.w3.org/Graphics/SVG/1.1/DTD/svg11.dtd">
<svg version="1.1" id="Capa_1" xmlns="http://www.w3.org/2000/svg" xmlns:xlink="http://www.w3.org/1999/xlink" x="0px" y="0px"
	 width="38.83px" height="33.873px" viewBox="0 0 38.83 33.873" enable-background="new 0 0 38.83 33.873" xml:space="preserve">
<g>
	<g>
		
			<linearGradient id="SVGID_1_" gradientUnits="userSpaceOnUse" x1="-1553.2197" y1="-243.083" x2="-1544.1108" y2="-243.083" gradientTransform="matrix(0.976 -0.2178 0.2178 0.976 1567.9934 -72.5132)">
			<stop  offset="0.4386" style="stop-color:#FFCA17"/>
			<stop  offset="1" style="stop-color:#F7971F"/>
		</linearGradient>
		<path fill="url(#SVGID_1_)" d="M0,32.53c0.124-0.075,4.647-4.919,4.647-4.919l3.031-2.496l-6.117-1.188
			c0,0-0.831-0.205-1.049,0.333C0.288,24.806,0,32.53,0,32.53z"/>
		
			<linearGradient id="SVGID_2_" gradientUnits="userSpaceOnUse" x1="-1550.9448" y1="-249.6973" x2="-1544.1108" y2="-249.6973" gradientTransform="matrix(0.976 -0.2178 0.2178 0.976 1567.9934 -72.5132)">
			<stop  offset="0.4386" style="stop-color:#FFCA17"/>
			<stop  offset="1" style="stop-color:#F7971F"/>
		</linearGradient>
		<path fill="url(#SVGID_2_)" d="M7.678,25.115l-6.921-9.008l-0.537,6.41c0,0-0.201,1.071,0.657,1.422
			C1.735,24.281,7.678,25.115,7.678,25.115z"/>
		
			<linearGradient id="SVGID_3_" gradientUnits="userSpaceOnUse" x1="-1544.1948" y1="-243.6953" x2="-1535.3906" y2="-243.6953" gradientTransform="matrix(0.976 -0.2178 0.2178 0.976 1567.9934 -72.5132)">
			<stop  offset="0" style="stop-color:#F7971F"/>
			<stop  offset="0.5614" style="stop-color:#FFCA17"/>
		</linearGradient>
		<path fill="url(#SVGID_3_)" d="M7.678,25.115c0,0,4.375-1.949,5.7-2.395c1.318-0.441,2.498-0.904,2.498-0.904
			s0.107,0.269-0.32,0.562c-0.42,0.291-4.354,3.337-4.887,3.84c-0.523,0.511-1.178,1.538-1.102,1.681
			C9.647,28.018,7.709,27.477,7.678,25.115z"/>
		
			<linearGradient id="SVGID_4_" gradientUnits="userSpaceOnUse" x1="-1550.5762" y1="-240.0107" x2="-1542.9155" y2="-241.9508" gradientTransform="matrix(0.976 -0.2178 0.2178 0.976 1567.9934 -72.5132)">
			<stop  offset="0.4386" style="stop-color:#FFCA17"/>
			<stop  offset="1" style="stop-color:#F7971F"/>
		</linearGradient>
		<path fill="url(#SVGID_4_)" d="M2.805,33.873l1.328-5.7c0,0,1.063-1.288,1.499-1.665c0.45-0.387,2.047-1.393,2.047-1.393
			s0.147,1.344,0.676,1.727c0.524,0.374,1.213,1.057,1.213,1.057L2.805,33.873z"/>
	</g>
	<g>
		
			<linearGradient id="SVGID_5_" gradientUnits="userSpaceOnUse" x1="-1449.4141" y1="74.1143" x2="-1435.5791" y2="74.1143" gradientTransform="matrix(0.9032 -0.4292 0.4292 0.9032 1293.4945 -670.0671)">
			<stop  offset="0.4386" style="stop-color:#EA1E51"/>
			<stop  offset="1" style="stop-color:#C42228"/>
		</linearGradient>
		<path fill="url(#SVGID_5_)" d="M18.867,24.586c0.165-0.165,5.229-8.858,5.229-8.858l3.638-4.714l-9.446,0.304
			c0,0-1.307-0.025-1.447,0.845C16.689,13.045,18.867,24.586,18.867,24.586z"/>
		
			<linearGradient id="SVGID_6_" gradientUnits="userSpaceOnUse" x1="-1445.958" y1="64.0635" x2="-1435.5791" y2="64.0635" gradientTransform="matrix(0.9032 -0.4292 0.4292 0.9032 1293.4945 -670.0671)">
			<stop  offset="0.4386" style="stop-color:#EA1E51"/>
			<stop  offset="1" style="stop-color:#C42228"/>
		</linearGradient>
		<path fill="url(#SVGID_6_)" d="M27.734,11.014L14.446,0l1.361,9.675c0,0,0.065,1.657,1.467,1.878
			C18.663,11.775,27.734,11.014,27.734,11.014z"/>
		
			<linearGradient id="SVGID_7_" gradientUnits="userSpaceOnUse" x1="-1435.7031" y1="73.1807" x2="-1422.3257" y2="73.1807" gradientTransform="matrix(0.9032 -0.4292 0.4292 0.9032 1293.4945 -670.0671)">
			<stop  offset="0" style="stop-color:#C42228"/>
			<stop  offset="0.5614" style="stop-color:#EA1E51"/>
		</linearGradient>
		<path fill="url(#SVGID_7_)" d="M27.734,11.014c0,0,5.823-4.371,7.638-5.48c1.814-1.1,3.398-2.169,3.398-2.169
			s0.252,0.353-0.277,0.931c-0.539,0.571-5.34,6.404-5.951,7.339c-0.602,0.926-1.219,2.677-1.063,2.843
			C31.641,14.643,28.581,14.486,27.734,11.014z"/>
		
			<linearGradient id="SVGID_8_" gradientUnits="userSpaceOnUse" x1="-1445.3955" y1="78.7725" x2="-1433.7478" y2="75.8227" gradientTransform="matrix(0.9032 -0.4292 0.4292 0.9032 1293.4945 -670.0671)">
			<stop  offset="0.4386" style="stop-color:#EA1E51"/>
			<stop  offset="1" style="stop-color:#C42228"/>
		</linearGradient>
		<path fill="url(#SVGID_8_)" d="M23.47,25.617l0.051-8.89c0,0,1.137-2.265,1.654-2.964c0.54-0.735,2.56-2.75,2.56-2.75
			s0.681,1.934,1.582,2.316c0.907,0.371,2.162,1.146,2.162,1.146L23.47,25.617z"/>
	</g>
	<g>
		
			<linearGradient id="SVGID_9_" gradientUnits="userSpaceOnUse" x1="-1435.1826" y1="68.2275" x2="-1428.0273" y2="68.2275" gradientTransform="matrix(0.8633 -0.5048 0.5048 0.8633 1206.2424 -772.1842)">
			<stop  offset="0.4386" style="stop-color:#4169B0"/>
			<stop  offset="1" style="stop-color:#4478BB"/>
		</linearGradient>
		<path fill="url(#SVGID_9_)" d="M3.314,13.975c0.08-0.088,2.304-4.787,2.304-4.787l1.669-2.594L2.426,7.168
			c0,0-0.667,0.045-0.706,0.499C1.684,8.122,3.314,13.975,3.314,13.975z"/>
		
			<linearGradient id="SVGID_10_" gradientUnits="userSpaceOnUse" x1="-1433.3916" y1="63.0322" x2="-1428.0273" y2="63.0322" gradientTransform="matrix(0.8633 -0.5048 0.5048 0.8633 1206.2424 -772.1842)">
			<stop  offset="0.4386" style="stop-color:#4169B0"/>
			<stop  offset="1" style="stop-color:#4478BB"/>
		</linearGradient>
		<path fill="url(#SVGID_10_)" d="M7.288,6.594l-7.337-5.088l1.132,4.918c0,0,0.109,0.854,0.837,0.904
			C2.646,7.387,7.288,6.594,7.288,6.594z"/>
		
			<linearGradient id="SVGID_11_" gradientUnits="userSpaceOnUse" x1="-1428.0918" y1="67.7451" x2="-1421.1743" y2="67.7451" gradientTransform="matrix(0.8633 -0.5048 0.5048 0.8633 1206.2424 -772.1842)">
			<stop  offset="0" style="stop-color:#4478BB"/>
			<stop  offset="0.5614" style="stop-color:#4169B0"/>
		</linearGradient>
		<path fill="url(#SVGID_11_)" d="M7.288,6.594c0,0,2.805-2.52,3.688-3.166c0.886-0.645,1.656-1.269,1.656-1.269
			s0.149,0.175-0.102,0.491c-0.248,0.324-2.467,3.542-2.738,4.049C9.521,7.205,9.278,8.131,9.366,8.218
			C9.453,8.291,7.875,8.341,7.288,6.594z"/>
		
			<linearGradient id="SVGID_12_" gradientUnits="userSpaceOnUse" x1="-1433.1045" y1="70.6387" x2="-1427.0865" y2="69.1146" gradientTransform="matrix(0.8633 -0.5048 0.5048 0.8633 1206.2424 -772.1842)">
			<stop  offset="0.4386" style="stop-color:#4169B0"/>
			<stop  offset="1" style="stop-color:#4478BB"/>
		</linearGradient>
		<path fill="url(#SVGID_12_)" d="M5.733,14.305l-0.37-4.58c0,0,0.494-1.221,0.727-1.603c0.242-0.403,1.198-1.528,1.198-1.528
			s0.434,0.963,0.917,1.118c0.485,0.16,1.161,0.506,1.161,0.506L5.733,14.305z"/>
	</g>
</g>
</svg>
