<?xml version="1.0" encoding="utf-8"?>
<!-- Generator: Adobe Illustrator 16.0.0, SVG Export Plug-In . SVG Version: 6.00 Build 0)  -->
<!DOCTYPE svg PUBLIC "-//W3C//DTD SVG 1.1//EN" "http://www.w3.org/Graphics/SVG/1.1/DTD/svg11.dtd">
<svg version="1.1" id="Capa_1" xmlns="http://www.w3.org/2000/svg" xmlns:xlink="http://www.w3.org/1999/xlink" x="0px" y="0px"
	 width="190.922px" height="68.144px" viewBox="0 0 190.922 68.144" enable-background="new 0 0 190.922 68.144"
	 xml:space="preserve">
<g>
	<path fill="#3BB24A" d="M20.847,24.315c0-1.284-0.183-2.435-0.546-3.427c-0.366-0.992-0.844-1.849-1.442-2.562
		c-0.574-0.692-1.231-1.277-1.948-1.743c-0.679-0.439-1.349-0.8-2-1.073c-0.626-0.257-1.219-0.465-1.755-0.604
		c-0.499-0.131-0.865-0.221-1.113-0.279c-1.039-0.272-2.062-0.57-3.04-0.887c-0.884-0.279-1.674-0.651-2.347-1.113
		c-0.611-0.416-1.098-0.937-1.458-1.561C4.853,10.486,4.68,9.687,4.68,8.701c0-0.819,0.152-1.576,0.44-2.242
		C5.405,5.797,5.803,5.23,6.298,4.771c0.521-0.469,1.135-0.834,1.836-1.092c0.71-0.27,1.489-0.402,2.304-0.402
		c1.014,0,1.867,0.188,2.531,0.561c0.66,0.373,1.215,0.896,1.647,1.557c0.422,0.658,0.701,1.494,0.917,2.5
		c0.1,0.475,0.193,1.476,0.193,1.476l4.208,0.007c0,0-0.378-2.55-0.778-3.625c-0.574-1.502-1.331-2.742-2.239-3.67
		c-0.943-0.951-1.981-1.646-3.104-2.065c-1.107-0.409-2.214-0.62-3.293-0.62c-1.281,0-2.518,0.202-3.681,0.602
		c-1.216,0.42-2.289,1.036-3.191,1.834c-0.946,0.852-1.86,1.852-2.385,2.98c-0.591,1.273-1.06,2.613-1.06,3.973v0.143
		c0,1.563,0.586,3.057,1.374,4.319c0.648,1.036,1.641,1.957,2.708,2.67c0.948,0.63,2.009,1.126,3.073,1.458
		c0.958,0.305,1.817,0.539,2.508,0.717c0.738,0.189,1.576,0.422,2.463,0.699c0.781,0.236,1.529,0.6,2.227,1.08
		c0.654,0.447,1.209,1.051,1.655,1.793c0.413,0.691,0.627,1.643,0.627,2.818c0,0.912-0.183,1.737-0.533,2.457
		c-0.373,0.75-0.856,1.395-1.452,1.92c-0.605,0.536-1.303,0.948-2.078,1.239c-0.788,0.292-1.603,0.441-2.416,0.441
		c-0.54,0-1.185-0.05-1.926-0.152c-0.639-0.091-1.265-0.308-1.864-0.651c-0.589-0.338-1.132-0.854-1.606-1.535
		c-0.474-0.67-0.8-1.653-0.964-2.906L0,25.58c0.127,1.685,0.561,3.133,1.281,4.289c0.704,1.129,1.578,2.057,2.599,2.732
		c0.986,0.67,2.09,1.15,3.278,1.42c1.126,0.271,2.217,0.4,3.24,0.4c1.322,0,2.618-0.242,3.871-0.725
		c1.253-0.479,2.379-1.179,3.346-2.063c0.971-0.887,1.761-1.96,2.338-3.188C20.549,27.197,20.847,25.806,20.847,24.315z"/>
	<path fill="#3BB24A" d="M34.241,0.001l-14.548,33.83h4.333l1.939-3.959h20.055l1.902,3.959h4.332L37.698,0.001H34.241z
		 M44.297,25.487H27.678L35.949,5.9L44.297,25.487z"/>
	<polygon fill="#3BB24A" points="75.893,26.707 56.638,0.001 52.984,0.001 52.984,33.832 56.409,33.832 56.409,6.638 76.641,33.832 
		80.285,33.832 80.285,0.001 75.893,0.001 	"/>
	<path fill="#3BB24A" d="M104.988,4.427c-1.467-1.458-3.308-2.568-5.455-3.338c-2.04-0.737-4.415-1.088-7.073-1.088H82.213v33.83
		H92.46c2.519,0,4.896-0.328,7.073-1.109c2.084-0.756,3.924-1.869,5.455-3.387c1.489-1.473,2.641-3.283,3.424-5.404
		c0.772-2.085,1.166-4.447,1.166-7.043c0-2.605-0.394-4.975-1.166-7.059C107.635,7.72,106.48,5.906,104.988,4.427z M92.46,30.083
		h-6.18V3.537h6.18c1.888,0,3.783,0.345,5.65,1.029c1.458,0.537,2.856,1.461,4.054,2.667c1.085,1.108,1.934,2.478,2.508,4.085
		c0.596,1.644,0.894,3.551,0.894,5.66c0,2.084-0.301,3.966-0.905,5.591c-0.598,1.604-1.455,2.971-2.547,4.05
		c-1.145,1.135-2.512,1.97-4.063,2.531C96.299,29.789,94.419,30.083,92.46,30.083z"/>
	<path fill="#3BB24A" d="M151.736,0.001h-3.458l-14.554,33.83h4.336l1.938-3.959h20.057l1.906,3.959h4.33L151.736,0.001z
		 M158.333,25.487h-16.617L149.994,5.9L158.333,25.487z"/>
	<g>
		<path fill="#0D8545" d="M60.769,41.257c-1.421-1.387-3.099-2.469-4.99-3.241c-1.886-0.767-3.923-1.157-6.047-1.157
			c-2.153,0-4.192,0.391-6.069,1.163c-1.87,0.767-3.544,1.849-4.969,3.235c-1.42,1.379-2.558,3.051-3.368,4.959
			c-0.809,1.906-1.222,4.003-1.222,6.232c0,2.23,0.413,4.33,1.222,6.24c0.81,1.9,1.948,3.572,3.368,4.955
			c1.424,1.381,3.099,2.473,4.966,3.238c1.88,0.772,3.919,1.156,6.072,1.156c2.124,0,4.162-0.384,6.047-1.156
			c1.891-0.763,3.569-1.854,4.99-3.238c1.42-1.383,2.558-3.055,3.367-4.959c0.813-1.906,1.225-4.006,1.225-6.236
			c0-2.229-0.412-4.326-1.225-6.232C63.327,44.312,62.189,42.636,60.769,41.257z M49.731,64.07c-1.613,0-3.136-0.299-4.528-0.875
			c-1.396-0.589-2.636-1.404-3.665-2.432c-1.039-1.023-1.867-2.26-2.46-3.662c-0.592-1.404-0.893-2.971-0.893-4.652
			c0-1.678,0.301-3.244,0.893-4.648c0.596-1.408,1.421-2.643,2.46-3.662c1.036-1.029,2.27-1.842,3.665-2.426
			c1.393-0.586,2.916-0.887,4.528-0.887c1.584,0,3.098,0.301,4.484,0.887c1.399,0.584,2.639,1.396,3.675,2.426
			c1.035,1.02,1.867,2.261,2.478,3.672c0.599,1.401,0.909,2.965,0.909,4.639c0,1.682-0.311,3.238-0.909,4.641
			c-0.611,1.41-1.442,2.65-2.478,3.674c-1.036,1.027-2.27,1.843-3.675,2.432C52.83,63.771,51.316,64.07,49.731,64.07z"/>
		<path fill="#0D8545" d="M77.465,57.253c1.699,0,3.191-0.348,4.422-1.029c1.197-0.664,2.184-1.499,2.943-2.479
			c0.748-0.958,1.299-2.025,1.649-3.166c0.335-1.104,0.502-2.174,0.502-3.176v-0.23c-0.027-0.898-0.165-1.789-0.406-2.657
			c-0.232-0.85-0.553-1.653-0.952-2.385c-0.403-0.757-0.899-1.436-1.47-2.022c-0.583-0.595-1.225-1.082-1.938-1.471
			c-0.366-0.182-0.779-0.352-1.275-0.535c-0.444-0.164-0.977-0.299-1.681-0.418c-0.617-0.112-1.278-0.197-2.14-0.252
			c-0.338-0.025-0.723-0.068-1.203-0.068c-0.255,0-9.444,0-9.444,0v30.296h4.069v-9.62l11.236,9.62h5.917L75.862,57.296
			L77.465,57.253z M76.802,53.342l-0.794,0.081h-5.464v-11.99h4.5c0.248,0,0.497-0.012,0.729-0.023
			c0.204-0.01,0.409-0.022,0.595-0.022h0.096c0.202,0.007,0.388,0.007,0.568,0.007c0.412,0,0.772,0.006,1.064,0.039
			c0.462,0.066,0.887,0.155,1.28,0.282c0.335,0.105,0.658,0.261,0.958,0.453c0.816,0.53,1.451,1.269,1.879,2.183
			c0.459,0.979,0.688,1.951,0.688,2.903c0,0.905-0.142,1.756-0.421,2.531c-0.273,0.726-0.748,1.47-1.427,2.202
			c-0.338,0.271-0.676,0.492-1.005,0.666c-0.357,0.184-0.72,0.322-1.089,0.416c-0.403,0.104-0.803,0.166-1.259,0.195
			c-0.117,0.006-0.235,0.021-0.347,0.033C77.149,53.318,76.963,53.342,76.802,53.342z"/>
		<polygon fill="#0D8545" points="86.28,41.433 93.241,41.433 93.241,67.661 97.521,67.661 97.521,41.433 105.122,41.433 
			105.122,37.151 86.28,37.151 		"/>
		<rect x="106.512" y="37.151" fill="#0D8545" width="4.181" height="30.51"/>
		<polygon fill="#0D8545" points="134.01,37.151 112.832,37.151 112.832,41.433 127.098,41.433 112.255,67.661 133.496,67.661 
			133.496,63.809 119.171,63.809 		"/>
	</g>
	<g>
		<g>
			<rect x="136.928" y="36.546" fill="#EE4765" width="31.211" height="31.598"/>
			<g>
				<g>
					<path fill="#FFFFFF" d="M143.643,39.496v5.102h-0.602l-2.267-4.169v4.169h-0.444v-5.102h0.439l2.43,4.459v-4.459H143.643z"/>
					<path fill="#FFFFFF" d="M145.02,44.163c-0.252-0.278-0.396-0.642-0.396-1.029v-2.335h0.445v2.335
						c0,0.564,0.419,1.017,0.928,1.017c0.506,0,0.927-0.452,0.927-1.017v-2.335h0.444v2.335c0,0.388-0.141,0.751-0.395,1.029
						c-0.257,0.278-0.607,0.435-0.977,0.435C145.631,44.597,145.28,44.441,145.02,44.163z"/>
					<path fill="#FFFFFF" d="M148.539,44.027c-0.204-0.255-0.342-0.559-0.408-0.891c0-0.003-0.038-0.177-0.038-0.44
						c0-0.503,0.155-0.974,0.449-1.327c0.146-0.174,0.317-0.319,0.513-0.416c0.201-0.105,0.412-0.154,0.635-0.154
						c0.373,0,0.658,0.093,0.881,0.273c0.215,0.18,0.335,0.418,0.335,0.682c0,0.27-0.134,0.536-0.369,0.713
						c-0.251,0.195-0.595,0.301-0.998,0.301h-0.869c-0.003,0-0.056,0.004-0.067,0.016c-0.074,0.065-0.05,0.174-0.05,0.174v0.003l0,0
						c0.099,0.687,0.579,1.19,1.142,1.19c0.369,0,0.645-0.121,0.809-0.341l0.134-0.177l0.36,0.264l-0.145,0.177
						c-0.173,0.241-0.523,0.524-1.158,0.524C149.25,44.597,148.844,44.392,148.539,44.027z M148.57,42.327
						c0.071-0.009,0.099-0.009,0.109-0.009h0.858c0.31,0,0.555-0.068,0.723-0.199c0.13-0.105,0.194-0.235,0.194-0.365
						c0-0.232-0.217-0.516-0.766-0.516C149.158,41.238,148.707,41.697,148.57,42.327z"/>
					<path fill="#FFFFFF" d="M152.063,44.46c-0.232-0.111-0.372-0.264-0.463-0.381l-0.133-0.177l0.351-0.271l0.137,0.177
						c0.14,0.177,0.294,0.341,0.911,0.341c0.556,0,0.875-0.26,0.875-0.67c0-0.17-0.065-0.285-0.224-0.387
						c-0.167-0.097-0.431-0.162-0.682-0.23c-0.282-0.068-0.567-0.143-0.804-0.281c-0.295-0.178-0.453-0.444-0.453-0.773
						c0-0.297,0.112-0.551,0.319-0.725c0.228-0.199,0.56-0.285,0.968-0.285c0.41,0,0.791,0.188,1.045,0.52l0.131,0.178l-0.352,0.271
						l-0.135-0.178c-0.168-0.22-0.42-0.351-0.689-0.351c-0.589,0-0.844,0.195-0.844,0.57c0,0.175,0.072,0.293,0.239,0.389
						c0.167,0.107,0.425,0.176,0.683,0.238c0.275,0.066,0.564,0.14,0.797,0.285c0.291,0.171,0.443,0.435,0.443,0.76
						c0,0.311-0.121,0.6-0.35,0.801c-0.234,0.201-0.574,0.316-0.969,0.316C152.527,44.597,152.273,44.553,152.063,44.46z"/>
					<path fill="#FFFFFF" d="M156.277,44.15h0.064v0.447h-0.064c-0.37,0-0.717-0.156-0.977-0.435
						c-0.255-0.278-0.397-0.642-0.397-1.036v-3.631h0.443v1.389c0.071-0.012,0.134-0.018,0.202-0.018h0.793v0.443h-0.793
						c-0.09,0-0.146,0.021-0.168,0.047c-0.025,0.023-0.031,0.073-0.034,0.092v1.678C155.347,43.698,155.768,44.15,156.277,44.15z"/>
					<path fill="#FFFFFF" d="M157.256,44.597v-2.336c0-0.387,0.141-0.753,0.401-1.029c0.254-0.279,0.599-0.434,0.971-0.434h0.064
						v0.439h-0.064c-0.506,0-0.928,0.459-0.928,1.023v2.336H157.256z"/>
					<path fill="#FFFFFF" d="M159.498,44.281c-0.271-0.215-0.427-0.506-0.427-0.818c0-0.32,0.155-0.611,0.427-0.826
						c0.258-0.204,0.594-0.313,0.95-0.313l0.771-0.006c0,0,0.081,0,0.112-0.028c0.021-0.025,0.043-0.071,0.046-0.152v-0.204
						c0-0.372-0.381-0.695-0.878-0.695c-0.313,0-0.592,0.134-0.752,0.348l-0.131,0.176L159.26,41.5l0.137-0.182
						c0.239-0.331,0.658-0.52,1.104-0.52c0.348,0,0.674,0.111,0.922,0.315c0.254,0.218,0.406,0.509,0.406,0.819v1.529
						c0,0.313-0.154,0.604-0.425,0.818c-0.261,0.201-0.599,0.316-0.955,0.316S159.756,44.482,159.498,44.281z M160.448,42.767
						c-0.261,0-0.499,0.081-0.68,0.224c-0.164,0.127-0.251,0.295-0.251,0.472c0,0.17,0.087,0.337,0.251,0.468
						c0.181,0.14,0.419,0.22,0.68,0.22s0.499-0.08,0.677-0.22c0.166-0.131,0.253-0.298,0.253-0.468v-0.717
						c-0.08,0.021-0.14,0.021-0.167,0.021H160.448z"/>
					<path fill="#FFFFFF" d="M142.991,47.646v3.95c0,0.316-0.14,0.604-0.396,0.819c-0.245,0.204-0.574,0.318-0.915,0.318
						c-0.447,0-0.862-0.195-1.104-0.518l-0.138-0.18l0.36-0.267l0.134,0.177c0.153,0.217,0.431,0.341,0.747,0.341
						c0.492,0,0.865-0.319,0.865-0.691v-0.081c0-0.03-0.006-0.064-0.021-0.09c-0.025-0.021-0.078-0.043-0.168-0.043h-0.26
						c-0.503,0-0.965-0.195-1.321-0.549c-0.354-0.354-0.547-0.818-0.547-1.315c0-0.503,0.192-0.974,0.547-1.323
						c0.356-0.352,0.818-0.549,1.321-0.549H142.991z M142.555,50.96v-2.872l-0.459,0.007c-0.788,0-1.421,0.639-1.421,1.423
						c0,0.782,0.636,1.421,1.421,1.421h0.254C142.421,50.939,142.502,50.945,142.555,50.96z"/>
					<path fill="#FFFFFF" d="M144.331,50.892c-0.208-0.252-0.348-0.558-0.415-0.89c0-0.003-0.041-0.171-0.041-0.435
						c0-0.502,0.164-0.971,0.456-1.333c0.146-0.177,0.322-0.315,0.512-0.409c0.198-0.105,0.409-0.162,0.632-0.162
						c0.369,0,0.667,0.094,0.888,0.279c0.211,0.174,0.322,0.415,0.322,0.676c0,0.273-0.13,0.533-0.356,0.721
						c-0.258,0.195-0.602,0.291-1.005,0.291h-0.862c-0.009,0-0.059,0.006-0.074,0.021c-0.068,0.064-0.047,0.168-0.047,0.168v0.006
						l0,0c0.1,0.686,0.584,1.193,1.139,1.193c0.375,0,0.645-0.123,0.809-0.338l0.137-0.186l0.354,0.27l-0.133,0.177
						c-0.174,0.242-0.527,0.521-1.166,0.521C145.041,51.462,144.629,51.257,144.331,50.892z M144.359,49.197
						c0.074-0.014,0.102-0.007,0.105-0.007h0.858c0.313,0,0.564-0.075,0.726-0.202c0.131-0.102,0.198-0.232,0.198-0.369
						c0-0.229-0.218-0.508-0.769-0.508C144.944,48.111,144.492,48.567,144.359,49.197z"/>
					<path fill="#FFFFFF" d="M147.851,51.327c-0.233-0.105-0.372-0.258-0.468-0.382l-0.127-0.174l0.344-0.27l0.137,0.18
						c0.145,0.178,0.301,0.338,0.921,0.338c0.555,0,0.868-0.257,0.868-0.67c0-0.174-0.063-0.282-0.227-0.385
						c-0.168-0.099-0.426-0.166-0.676-0.229c-0.275-0.074-0.574-0.146-0.807-0.286c-0.298-0.179-0.449-0.446-0.449-0.778
						c0-0.288,0.111-0.545,0.316-0.722c0.227-0.192,0.555-0.286,0.974-0.286c0.399,0,0.781,0.193,1.036,0.527l0.136,0.172
						l-0.354,0.269l-0.14-0.177c-0.167-0.22-0.418-0.344-0.679-0.344c-0.59,0-0.841,0.191-0.841,0.561
						c0,0.184,0.063,0.295,0.227,0.395c0.17,0.105,0.432,0.174,0.689,0.236c0.272,0.07,0.563,0.147,0.796,0.285
						c0.296,0.173,0.44,0.434,0.44,0.762c0,0.313-0.121,0.602-0.342,0.794c-0.241,0.211-0.576,0.319-0.97,0.319
						C148.318,51.462,148.063,51.419,147.851,51.327z"/>
					<path fill="#FFFFFF" d="M152.065,51.019h0.062v0.443h-0.062c-0.369,0-0.72-0.154-0.977-0.434
						c-0.255-0.276-0.397-0.645-0.397-1.029v-3.632h0.447v1.386c0.063-0.016,0.127-0.021,0.197-0.021h0.791v0.443h-0.791
						c-0.096,0-0.143,0.021-0.167,0.053c-0.021,0.028-0.03,0.068-0.03,0.088V50C151.139,50.57,151.561,51.019,152.065,51.019z"/>
					<path fill="#FFFFFF" d="M153.551,46.751v0.088c0,0.124-0.094,0.223-0.221,0.223s-0.223-0.099-0.223-0.223v-0.088
						c0-0.12,0.096-0.22,0.223-0.22S153.551,46.631,153.551,46.751z M153.107,47.664h0.443v3.799h-0.443V47.664z"/>
					<path fill="#FFFFFF" d="M157.582,49.587c0,0.495-0.161,0.958-0.459,1.309c-0.152,0.18-0.325,0.318-0.521,0.412
						c-0.203,0.102-0.424,0.154-0.646,0.154c-0.224,0-0.445-0.053-0.648-0.154c-0.195-0.094-0.373-0.232-0.519-0.412
						c-0.3-0.351-0.469-0.813-0.469-1.309c0-0.493,0.169-0.959,0.469-1.31c0.146-0.173,0.323-0.313,0.519-0.415
						c0.203-0.102,0.425-0.148,0.648-0.148c0.223,0,0.443,0.047,0.646,0.148c0.196,0.103,0.369,0.242,0.521,0.415
						C157.421,48.628,157.582,49.094,157.582,49.587z M157.143,49.587c0-0.801-0.541-1.428-1.188-1.428
						c-0.648,0-1.191,0.627-1.191,1.428c0,0.797,0.543,1.43,1.191,1.43C156.602,51.017,157.143,50.384,157.143,49.587z
						 M156.329,46.336l0.271,0.354l-1.147,0.874l-0.271-0.346L156.329,46.336z"/>
					<path fill="#FFFFFF" d="M160.789,51.462v-2.338c0-0.561-0.418-1.014-0.931-1.014c-0.508,0-0.927,0.453-0.927,1.014v2.338
						h-0.443v-2.338c0-0.385,0.14-0.75,0.396-1.02c0.262-0.285,0.605-0.441,0.974-0.441c0.366,0,0.717,0.156,0.974,0.441
						c0.254,0.27,0.395,0.635,0.395,1.02v2.338H160.789z"/>
					<path fill="#FFFFFF" d="M140.682,57.758c-0.205-0.245-0.349-0.556-0.414-0.887c0-0.003-0.04-0.173-0.04-0.438
						c0-0.496,0.159-0.967,0.456-1.327c0.146-0.174,0.313-0.322,0.506-0.416c0.201-0.105,0.412-0.154,0.637-0.154
						c0.371,0,0.662,0.09,0.883,0.27c0.215,0.184,0.332,0.418,0.332,0.686c0,0.267-0.135,0.53-0.366,0.71
						c-0.254,0.201-0.595,0.3-1.001,0.3h-0.865c-0.007,0-0.06,0.008-0.072,0.023c-0.068,0.062-0.049,0.164-0.049,0.164v0.002
						l0.002,0.008c0.105,0.682,0.583,1.188,1.139,1.188c0.369,0,0.648-0.115,0.813-0.339l0.137-0.177l0.35,0.261l-0.133,0.18
						c-0.174,0.239-0.523,0.524-1.166,0.524C141.391,58.335,140.984,58.127,140.682,57.758z M140.712,56.062
						c0.068-0.01,0.097-0.006,0.105-0.006h0.856c0.315,0,0.561-0.072,0.725-0.202c0.133-0.104,0.199-0.232,0.199-0.362
						c0-0.236-0.217-0.518-0.77-0.518C141.298,54.974,140.842,55.439,140.712,56.062z"/>
					<path fill="#FFFFFF" d="M144.203,58.193c-0.234-0.104-0.375-0.255-0.465-0.379l-0.133-0.176l0.354-0.268l0.133,0.17
						c0.137,0.19,0.295,0.346,0.912,0.346c0.562,0,0.875-0.262,0.875-0.67c0-0.172-0.065-0.285-0.229-0.379
						c-0.168-0.103-0.425-0.168-0.68-0.236c-0.276-0.07-0.567-0.142-0.807-0.285c-0.288-0.176-0.443-0.44-0.443-0.777
						c0-0.292,0.108-0.543,0.319-0.724c0.221-0.188,0.55-0.276,0.965-0.276c0.412,0,0.785,0.187,1.042,0.516l0.134,0.174
						l-0.351,0.273l-0.134-0.178c-0.174-0.223-0.422-0.35-0.691-0.35c-0.586,0-0.841,0.201-0.841,0.564
						c0,0.186,0.065,0.301,0.232,0.399c0.174,0.1,0.432,0.171,0.683,0.232c0.279,0.075,0.564,0.146,0.804,0.285
						c0.288,0.171,0.446,0.435,0.446,0.761c0,0.318-0.13,0.598-0.351,0.797c-0.245,0.213-0.577,0.316-0.974,0.316
						C144.666,58.33,144.412,58.292,144.203,58.193z"/>
					<path fill="#FFFFFF" d="M149.401,57.901c-0.257-0.276-0.396-0.646-0.396-1.029v-2.335h0.442v2.335
						c0,0.564,0.423,1.021,0.925,1.021c0.505,0,0.928-0.456,0.928-1.021v-2.335h0.443v2.335c0,0.384-0.14,0.753-0.395,1.029
						c-0.257,0.279-0.607,0.435-0.977,0.435S149.659,58.18,149.401,57.901z"/>
					<path fill="#FFFFFF" d="M154.962,58.335v-2.338c0-0.571-0.421-1.023-0.928-1.023c-0.505,0-0.927,0.452-0.927,1.023v2.338
						h-0.446v-2.338c0-0.389,0.142-0.754,0.399-1.031c0.254-0.275,0.602-0.43,0.974-0.43c0.37,0,0.72,0.154,0.974,0.43
						c0.258,0.277,0.395,0.643,0.395,1.031v2.338H154.962z"/>
					<path fill="#FFFFFF" d="M156.665,58.019c-0.273-0.215-0.423-0.506-0.423-0.818c0-0.32,0.149-0.614,0.423-0.826
						c0.26-0.207,0.595-0.318,0.948-0.318h0.775c0,0,0.084,0,0.115-0.028c0.021-0.024,0.036-0.071,0.047-0.152v-0.208
						c0-0.365-0.379-0.693-0.875-0.693c-0.32,0-0.6,0.139-0.76,0.347l-0.127,0.181l-0.36-0.271l0.13-0.176
						c0.254-0.329,0.667-0.518,1.117-0.518c0.344,0,0.67,0.111,0.917,0.319c0.251,0.208,0.397,0.501,0.397,0.812v1.533
						c0,0.313-0.146,0.604-0.418,0.818c-0.26,0.201-0.6,0.316-0.959,0.316C157.26,58.335,156.925,58.22,156.665,58.019z
						 M157.613,56.501c-0.252,0-0.496,0.082-0.673,0.225c-0.165,0.127-0.251,0.298-0.251,0.475c0,0.17,0.086,0.334,0.251,0.471
						c0.177,0.14,0.421,0.215,0.673,0.215c0.267,0,0.502-0.075,0.682-0.215c0.168-0.137,0.256-0.301,0.256-0.471v-0.714
						c-0.085,0.022-0.141,0.022-0.168,0.015H157.613z"/>
					<path fill="#FFFFFF" d="M140.291,65.201v-2.334c0-0.391,0.139-0.748,0.396-1.03c0.26-0.275,0.607-0.437,0.973-0.437h0.063
						v0.446h-0.063c-0.502,0-0.926,0.449-0.926,1.021v2.334H140.291z"/>
					<path fill="#FFFFFF" d="M142.557,64.625c-0.201-0.245-0.34-0.555-0.406-0.881c-0.006-0.01-0.047-0.177-0.047-0.441
						c0-0.502,0.166-0.973,0.453-1.329c0.149-0.173,0.316-0.313,0.513-0.412c0.198-0.105,0.411-0.161,0.636-0.161
						c0.369,0,0.666,0.096,0.884,0.285c0.21,0.167,0.335,0.409,0.335,0.67c0,0.275-0.137,0.533-0.37,0.723
						c-0.251,0.191-0.595,0.291-1.001,0.291h-0.869c-0.006,0-0.055,0.006-0.068,0.025c-0.07,0.061-0.049,0.164-0.049,0.164l0,0
						v0.002c0.102,0.693,0.583,1.201,1.141,1.201c0.373,0,0.648-0.124,0.813-0.348l0.134-0.18l0.351,0.267l-0.127,0.184
						c-0.184,0.238-0.53,0.517-1.17,0.517C143.268,65.201,142.857,64.994,142.557,64.625z M142.585,62.935
						c0.071-0.007,0.099-0.007,0.108-0.007h0.859c0.316,0,0.564-0.075,0.726-0.204c0.13-0.1,0.198-0.232,0.198-0.369
						c0-0.23-0.217-0.506-0.77-0.506C143.178,61.849,142.721,62.304,142.585,62.935z"/>
					<path fill="#FFFFFF" d="M145.938,64.888c-0.273-0.217-0.426-0.509-0.426-0.828c0-0.31,0.152-0.605,0.426-0.815
						c0.258-0.202,0.595-0.316,0.955-0.316h0.766c0,0,0.078,0,0.115-0.034c0.021-0.016,0.043-0.068,0.047-0.146v-0.208
						c0-0.369-0.383-0.691-0.872-0.691c-0.323,0-0.603,0.13-0.761,0.338l-0.129,0.183l-0.36-0.267l0.134-0.18
						c0.244-0.328,0.664-0.523,1.116-0.523c0.335,0,0.669,0.115,0.918,0.319c0.251,0.216,0.397,0.515,0.397,0.821v1.52
						c0,0.319-0.152,0.611-0.419,0.828c-0.261,0.207-0.593,0.313-0.952,0.313C146.532,65.201,146.195,65.095,145.938,64.888z
						 M146.893,63.375c-0.268,0-0.502,0.074-0.686,0.215c-0.161,0.136-0.251,0.301-0.251,0.471c0,0.174,0.09,0.344,0.251,0.478
						c0.184,0.14,0.418,0.218,0.686,0.218c0.258,0,0.493-0.078,0.673-0.218c0.168-0.134,0.255-0.304,0.255-0.478v-0.704
						c-0.084,0.019-0.146,0.019-0.168,0.013L146.893,63.375z"/>
					<path fill="#FFFFFF" d="M149.085,60.099h0.443v5.102h-0.443V60.099z"/>
					<path fill="#FFFFFF" d="M151.346,60.488v0.09c0,0.124-0.103,0.223-0.221,0.223c-0.127,0-0.223-0.099-0.223-0.223v-0.09
						c0-0.121,0.096-0.221,0.223-0.221C151.243,60.267,151.346,60.367,151.346,60.488z M150.902,61.4h0.443v3.801h-0.443V61.4z"/>
					<path fill="#FFFFFF" d="M152.105,63.335c0-0.5,0.195-0.972,0.549-1.325c0.351-0.348,0.819-0.542,1.32-0.542h0.256
						c0.096,0,0.143-0.022,0.167-0.047c0.034-0.037,0.034-0.1,0.034-0.1v-1.223h0.441v5.102h-0.898c-0.501,0-0.97-0.191-1.32-0.545
						C152.301,64.302,152.105,63.833,152.105,63.335z M154.227,61.912h-0.252c-0.787,0-1.425,0.639-1.425,1.424
						c0,0.787,0.638,1.426,1.425,1.426h0.457v-2.875C154.363,61.902,154.301,61.912,154.227,61.912z"/>
					<path fill="#FFFFFF" d="M156.152,64.888c-0.272-0.217-0.421-0.509-0.421-0.828c0-0.31,0.148-0.605,0.421-0.815
						c0.255-0.202,0.593-0.316,0.952-0.316h0.767c0.009,0,0.08,0,0.115-0.034c0.023-0.016,0.046-0.068,0.046-0.146v-0.208
						c0-0.369-0.386-0.691-0.875-0.691c-0.31,0-0.599,0.13-0.75,0.338l-0.138,0.183l-0.35-0.267l0.131-0.18
						c0.242-0.328,0.66-0.523,1.106-0.523c0.345,0,0.671,0.115,0.921,0.319c0.258,0.216,0.4,0.515,0.4,0.821v1.52
						c0,0.319-0.148,0.611-0.418,0.828c-0.262,0.207-0.6,0.313-0.956,0.313C156.745,65.201,156.407,65.095,156.152,64.888z
						 M157.104,63.375c-0.257,0-0.499,0.074-0.676,0.215c-0.167,0.136-0.251,0.301-0.251,0.471c0,0.174,0.084,0.344,0.251,0.478
						c0.177,0.14,0.419,0.218,0.676,0.218s0.503-0.078,0.673-0.218c0.168-0.134,0.255-0.304,0.255-0.478v-0.704
						c-0.083,0.019-0.143,0.019-0.168,0.013L157.104,63.375z"/>
					<path fill="#FFFFFF" d="M159.1,63.335c0-0.5,0.188-0.972,0.545-1.325c0.356-0.348,0.822-0.542,1.322-0.542h0.257
						c0.087,0,0.147-0.022,0.17-0.047c0.028-0.037,0.028-0.1,0.028-0.1v-1.223h0.446v5.102h-0.901c-0.5,0-0.966-0.191-1.316-0.545
						C159.288,64.302,159.1,63.833,159.1,63.335z M161.224,61.912h-0.257c-0.785,0-1.422,0.639-1.422,1.424
						c0,0.787,0.637,1.426,1.422,1.426h0.455v-2.875C161.354,61.902,161.298,61.912,161.224,61.912z"/>
				</g>
			</g>
		</g>
		<g>
			<g>
				
					<linearGradient id="SVGID_1_" gradientUnits="userSpaceOnUse" x1="106.6563" y1="163.0386" x2="111.8652" y2="163.0386" gradientTransform="matrix(0.9996 -0.0271 0.0271 0.9996 59.6043 -117.992)">
					<stop  offset="0.4386" style="stop-color:#FFCA17"/>
					<stop  offset="1" style="stop-color:#F7971F"/>
				</linearGradient>
				<path fill="url(#SVGID_1_)" d="M170.7,44.433c0.081-0.028,3.146-2.252,3.146-2.252l1.975-1.067l-3.303-1.337
					c0,0-0.443-0.201-0.623,0.072C171.709,40.134,170.7,44.433,170.7,44.433z"/>
				
					<linearGradient id="SVGID_2_" gradientUnits="userSpaceOnUse" x1="107.9609" y1="159.2593" x2="111.8652" y2="159.2593" gradientTransform="matrix(0.9996 -0.0271 0.0271 0.9996 59.6043 -117.992)">
					<stop  offset="0.4386" style="stop-color:#FFCA17"/>
					<stop  offset="1" style="stop-color:#F7971F"/>
				</linearGradient>
				<path fill="url(#SVGID_2_)" d="M175.82,41.114l-2.899-5.809l-0.998,3.539c0,0-0.229,0.577,0.21,0.868
					C172.576,39.995,175.82,41.114,175.82,41.114z"/>
				
					<linearGradient id="SVGID_3_" gradientUnits="userSpaceOnUse" x1="111.8174" y1="162.689" x2="116.8457" y2="162.689" gradientTransform="matrix(0.9996 -0.0271 0.0271 0.9996 59.6043 -117.992)">
					<stop  offset="0" style="stop-color:#F7971F"/>
					<stop  offset="0.5614" style="stop-color:#FFCA17"/>
				</linearGradient>
				<path fill="url(#SVGID_3_)" d="M175.82,41.114c0,0,2.664-0.616,3.459-0.72c0.787-0.104,1.496-0.235,1.496-0.235
					s0.032,0.161-0.238,0.279c-0.27,0.118-2.81,1.393-3.16,1.619c-0.35,0.232-0.83,0.737-0.803,0.825
					C176.607,42.959,175.582,42.439,175.82,41.114z"/>
				
					<linearGradient id="SVGID_4_" gradientUnits="userSpaceOnUse" x1="108.1719" y1="164.7925" x2="112.5454" y2="163.6849" gradientTransform="matrix(0.9996 -0.0271 0.0271 0.9996 59.6043 -117.992)">
					<stop  offset="0.4386" style="stop-color:#FFCA17"/>
					<stop  offset="1" style="stop-color:#F7971F"/>
				</linearGradient>
				<path fill="url(#SVGID_4_)" d="M172.131,45.49l1.364-3.051c0,0,0.737-0.608,1.026-0.767c0.295-0.167,1.299-0.559,1.299-0.559
					s-0.064,0.77,0.189,1.043c0.254,0.263,0.564,0.726,0.564,0.726L172.131,45.49z"/>
			</g>
			<g>
				
					<linearGradient id="SVGID_5_" gradientUnits="userSpaceOnUse" x1="73.9673" y1="774.2075" x2="81.877" y2="774.2075" gradientTransform="matrix(0.9032 -0.4292 0.4292 0.9032 -221.1136 -633.4191)">
					<stop  offset="0.4386" style="stop-color:#EA1E51"/>
					<stop  offset="1" style="stop-color:#C42228"/>
				</linearGradient>
				<path fill="url(#SVGID_5_)" d="M179.512,37.312c0.096-0.1,2.988-5.061,2.988-5.061l2.082-2.698l-5.399,0.177
					c0,0-0.744-0.016-0.825,0.48C178.271,30.716,179.512,37.312,179.512,37.312z"/>
				
					<linearGradient id="SVGID_6_" gradientUnits="userSpaceOnUse" x1="75.9463" y1="768.4614" x2="81.877" y2="768.4614" gradientTransform="matrix(0.9032 -0.4292 0.4292 0.9032 -221.1136 -633.4191)">
					<stop  offset="0.4386" style="stop-color:#EA1E51"/>
					<stop  offset="1" style="stop-color:#C42228"/>
				</linearGradient>
				<path fill="url(#SVGID_6_)" d="M184.582,29.553l-7.596-6.293l0.782,5.53c0,0,0.034,0.945,0.837,1.068
					C179.396,29.99,184.582,29.553,184.582,29.553z"/>
				
					<linearGradient id="SVGID_7_" gradientUnits="userSpaceOnUse" x1="81.8062" y1="773.6733" x2="89.4487" y2="773.6733" gradientTransform="matrix(0.9032 -0.4292 0.4292 0.9032 -221.1136 -633.4191)">
					<stop  offset="0" style="stop-color:#C42228"/>
					<stop  offset="0.5614" style="stop-color:#EA1E51"/>
				</linearGradient>
				<path fill="url(#SVGID_7_)" d="M184.582,29.553c0,0,3.324-2.497,4.363-3.126c1.035-0.633,1.941-1.244,1.941-1.244
					s0.146,0.201-0.158,0.533c-0.307,0.326-3.053,3.66-3.398,4.193c-0.348,0.53-0.695,1.529-0.608,1.625
					C186.812,31.625,185.065,31.538,184.582,29.553z"/>
				
					<linearGradient id="SVGID_8_" gradientUnits="userSpaceOnUse" x1="76.2666" y1="776.8696" x2="82.9234" y2="775.1838" gradientTransform="matrix(0.9032 -0.4292 0.4292 0.9032 -221.1136 -633.4191)">
					<stop  offset="0.4386" style="stop-color:#EA1E51"/>
					<stop  offset="1" style="stop-color:#C42228"/>
				</linearGradient>
				<path fill="url(#SVGID_8_)" d="M182.145,37.902l0.027-5.083c0,0,0.654-1.294,0.945-1.69c0.309-0.422,1.465-1.575,1.465-1.575
					s0.387,1.106,0.898,1.327c0.525,0.208,1.241,0.654,1.241,0.654L182.145,37.902z"/>
			</g>
			<g>
				
					<linearGradient id="SVGID_9_" gradientUnits="userSpaceOnUse" x1="22.5693" y1="895.5796" x2="26.9785" y2="895.5796" gradientTransform="matrix(0.8633 -0.5048 0.5048 0.8633 -303.4454 -729.4902)">
					<stop  offset="0.4386" style="stop-color:#4169B0"/>
					<stop  offset="1" style="stop-color:#4478BB"/>
				</linearGradient>
				<path fill="url(#SVGID_9_)" d="M169.129,33.984c0.047-0.056,1.417-2.955,1.417-2.955l1.028-1.598l-2.994,0.357
					c0,0-0.41,0.027-0.432,0.307C168.127,30.377,169.129,33.984,169.129,33.984z"/>
				
					<linearGradient id="SVGID_10_" gradientUnits="userSpaceOnUse" x1="23.6748" y1="892.3755" x2="26.9785" y2="892.3755" gradientTransform="matrix(0.8633 -0.5048 0.5048 0.8633 -303.4454 -729.4902)">
					<stop  offset="0.4386" style="stop-color:#4169B0"/>
					<stop  offset="1" style="stop-color:#4478BB"/>
				</linearGradient>
				<path fill="url(#SVGID_10_)" d="M171.574,29.431l-4.518-3.135l0.697,3.029c0,0,0.066,0.527,0.512,0.559
					C168.715,29.925,171.574,29.431,171.574,29.431z"/>
				
					<linearGradient id="SVGID_11_" gradientUnits="userSpaceOnUse" x1="26.939" y1="895.2808" x2="31.2056" y2="895.2808" gradientTransform="matrix(0.8633 -0.5048 0.5048 0.8633 -303.4454 -729.4902)">
					<stop  offset="0" style="stop-color:#4478BB"/>
					<stop  offset="0.5614" style="stop-color:#4169B0"/>
				</linearGradient>
				<path fill="url(#SVGID_11_)" d="M171.574,29.431c0,0,1.731-1.553,2.277-1.95c0.545-0.396,1.021-0.784,1.021-0.784
					s0.09,0.108-0.063,0.304c-0.151,0.202-1.519,2.187-1.687,2.496c-0.168,0.311-0.32,0.885-0.264,0.937
					C172.912,30.477,171.938,30.508,171.574,29.431z"/>
				
					<linearGradient id="SVGID_12_" gradientUnits="userSpaceOnUse" x1="23.8516" y1="897.0649" x2="27.5615" y2="896.1254" gradientTransform="matrix(0.8633 -0.5048 0.5048 0.8633 -303.4454 -729.4902)">
					<stop  offset="0.4386" style="stop-color:#4169B0"/>
					<stop  offset="1" style="stop-color:#4478BB"/>
				</linearGradient>
				<path fill="url(#SVGID_12_)" d="M170.62,34.186l-0.229-2.822c0,0,0.304-0.753,0.449-0.986c0.146-0.251,0.734-0.946,0.734-0.946
					s0.27,0.596,0.565,0.692c0.304,0.099,0.72,0.31,0.72,0.31L170.62,34.186z"/>
			</g>
		</g>
	</g>
	<path fill="#EE4765" d="M112.512,32.152l-2.506,3.984h-3.123l2.33-3.984H112.512z"/>
	<g>
		<path fill="none" d="M121.925,18.281c0.247-0.035,0.489,0.008,0.723-0.01c0.515-0.037,1.018-0.172,1.501-0.299
			c0.391-0.092,0.809-0.264,1.314-0.53c0.388-0.194,0.797-0.474,1.226-0.824c0.821-0.881,1.401-1.776,1.721-2.661
			c0.341-0.928,0.512-1.943,0.512-3.014c0-1.145-0.278-2.314-0.821-3.474c-0.528-1.126-1.27-1.989-2.271-2.642
			c-0.376-0.24-0.772-0.426-1.185-0.556c-0.456-0.146-0.968-0.258-1.52-0.326c-0.195-0.028-0.4-0.064-0.611-0.096
			c-0.418-0.071-0.853-0.137-1.299-0.146c-0.357-0.009-0.714-0.058-1.096-0.089c-0.452-0.037-0.918-0.078-1.395-0.078h-4.5v14.777
			h6.488C121.127,18.314,121.528,18.32,121.925,18.281z"/>
		<polygon fill="#3BB24A" points="114.225,33.832 114.225,31.488 112.556,33.832 		"/>
		<path fill="#3BB24A" d="M127.42,33.832h5.771l-13.549-11.774h2.715c1.887,0,3.539-0.382,4.908-1.138
			c1.33-0.741,2.428-1.662,3.268-2.751c0.831-1.073,1.457-2.255,1.843-3.523c0.378-1.243,0.583-2.435,0.583-3.542v-0.238
			c0-0.899-0.162-1.876-0.469-2.975c-0.267-0.945-0.623-1.838-1.066-2.67c-0.45-0.84-1.011-1.597-1.646-2.251
			c-0.643-0.657-1.344-1.185-2.075-1.591l-0.046-0.025c-0.423-0.204-0.902-0.412-1.434-0.607c-0.518-0.181-1.122-0.338-1.873-0.469
			c-0.604-0.108-1.35-0.164-2.412-0.238c-0.772-0.05-1.676-0.037-2.692-0.037h-8.553v18.924v12.342h3.532v-8.688L127.42,33.832z
			 M114.225,3.537h4.5c0.477,0,0.942,0.041,1.395,0.078c0.382,0.031,0.738,0.064,1.096,0.068c0.446,0.01,0.881,0.083,1.299,0.157
			c0.211,0.034,0.416,0.075,0.611,0.097c0.552,0.074,1.063,0.186,1.52,0.328c0.412,0.134,0.809,0.322,1.185,0.563
			c1.001,0.652,1.742,1.516,2.271,2.642c0.543,1.159,0.821,2.329,0.821,3.474c0,1.07-0.171,2.086-0.512,3.014
			c-0.319,0.885-0.899,1.78-1.721,2.654c-0.429,0.357-0.838,0.637-1.226,0.831c-0.506,0.267-0.924,0.435-1.314,0.53
			c-0.483,0.125-0.986,0.249-1.501,0.289c-0.233,0.02-0.476-0.016-0.723,0.02c-0.396,0.039-0.798,0.033-1.212,0.033h-6.488V3.537z"
			/>
	</g>
</g>
</svg>
