<?xml version="1.0" encoding="utf-8"?>
<!-- Generator: Adobe Illustrator 16.0.0, SVG Export Plug-In . SVG Version: 6.00 Build 0)  -->
<!DOCTYPE svg PUBLIC "-//W3C//DTD SVG 1.1//EN" "http://www.w3.org/Graphics/SVG/1.1/DTD/svg11.dtd">
<svg version="1.1" id="Capa_1" xmlns="http://www.w3.org/2000/svg" xmlns:xlink="http://www.w3.org/1999/xlink" x="0px" y="0px"
	 width="87.041px" height="31.871px" viewBox="0 0 87.041 31.871" enable-background="new 0 0 87.041 31.871" xml:space="preserve">
<g>
	<path fill="#3BB24A" d="M9.665,11.552c0-0.595-0.085-1.128-0.253-1.588C9.242,9.503,9.02,9.106,8.743,8.776
		C8.477,8.455,8.172,8.184,7.84,7.968C7.525,7.764,7.214,7.597,6.913,7.47C6.622,7.352,6.348,7.255,6.099,7.19
		c-0.231-0.061-0.401-0.103-0.516-0.13C5.101,6.935,4.626,6.796,4.173,6.649C3.764,6.52,3.397,6.348,3.085,6.134
		C2.802,5.941,2.577,5.699,2.409,5.41c-0.159-0.269-0.24-0.639-0.24-1.097c0-0.38,0.071-0.73,0.204-1.04
		C2.506,2.968,2.69,2.705,2.92,2.492c0.242-0.217,0.526-0.387,0.851-0.506c0.33-0.125,0.69-0.187,1.068-0.187
		c0.47,0,0.865,0.087,1.173,0.26c0.306,0.173,0.563,0.416,0.764,0.722c0.196,0.305,0.325,0.692,0.425,1.159
		c0.046,0.22,0.089,0.684,0.089,0.684l1.951,0.003c0,0-0.175-1.182-0.361-1.681C8.614,2.25,8.264,1.675,7.843,1.245
		C7.405,0.804,6.924,0.482,6.403,0.288C5.89,0.098,5.377,0,4.877,0C4.283,0,3.709,0.094,3.17,0.279
		c-0.564,0.195-1.062,0.48-1.479,0.85C1.252,1.524,0.828,1.987,0.585,2.511c-0.274,0.59-0.492,1.211-0.492,1.842v0.066
		c0,0.725,0.272,1.417,0.637,2.002c0.3,0.48,0.76,0.907,1.255,1.238C2.425,7.951,2.917,8.181,3.41,8.334
		c0.444,0.142,0.843,0.25,1.163,0.333c0.342,0.088,0.73,0.196,1.142,0.324c0.362,0.109,0.709,0.278,1.032,0.5
		c0.304,0.208,0.561,0.487,0.768,0.832c0.191,0.32,0.291,0.761,0.291,1.307c0,0.423-0.084,0.805-0.247,1.139
		c-0.172,0.348-0.397,0.646-0.673,0.89c-0.28,0.249-0.604,0.44-0.963,0.575c-0.365,0.135-0.743,0.205-1.12,0.205
		c-0.25,0-0.549-0.023-0.893-0.071c-0.296-0.042-0.586-0.143-0.864-0.302C2.772,13.909,2.52,13.669,2.3,13.354
		c-0.22-0.311-0.371-0.766-0.447-1.347L0,12.139c0.059,0.781,0.26,1.452,0.594,1.988c0.326,0.523,0.731,0.954,1.205,1.267
		c0.457,0.311,0.969,0.533,1.52,0.658c0.522,0.125,1.028,0.186,1.502,0.186c0.613,0,1.214-0.112,1.794-0.336
		c0.581-0.222,1.103-0.546,1.551-0.957c0.45-0.411,0.816-0.909,1.084-1.478C9.526,12.888,9.665,12.244,9.665,11.552z"/>
	<path fill="#3BB24A" d="M15.874,0.281L9.129,15.964h2.008l0.899-1.835h9.297l0.881,1.835h2.008L17.477,0.281H15.874z
		 M20.536,12.096h-7.705l3.834-9.081L20.536,12.096z"/>
	<polygon fill="#3BB24A" points="35.184,12.661 26.257,0.281 24.563,0.281 24.563,15.964 26.151,15.964 26.151,3.357 35.53,15.964 
		37.22,15.964 37.22,0.281 35.184,0.281 	"/>
	<path fill="#3BB24A" d="M48.672,2.333c-0.68-0.676-1.534-1.191-2.529-1.547c-0.946-0.342-2.047-0.504-3.279-0.504h-4.75v15.683
		h4.75c1.167,0,2.27-0.152,3.279-0.514c0.966-0.35,1.819-0.867,2.529-1.57c0.69-0.683,1.224-1.522,1.587-2.505
		c0.358-0.967,0.541-2.062,0.541-3.265c0-1.208-0.183-2.306-0.541-3.272C49.899,3.859,49.364,3.018,48.672,2.333z M42.864,14.227
		h-2.865V1.919h2.865c0.875,0,1.754,0.16,2.62,0.478c0.676,0.249,1.324,0.677,1.879,1.236c0.503,0.514,0.896,1.148,1.163,1.894
		c0.276,0.762,0.415,1.646,0.415,2.624c0,0.966-0.14,1.838-0.42,2.592c-0.277,0.744-0.674,1.377-1.181,1.877
		c-0.53,0.526-1.164,0.913-1.883,1.174C44.644,14.09,43.772,14.227,42.864,14.227z"/>
	<path fill="#3BB24A" d="M70.344,0.281h-1.603l-6.747,15.683h2.01l0.898-1.835H74.2l0.884,1.835h2.007L70.344,0.281z M73.402,12.096
		h-7.704l3.838-9.081L73.402,12.096z"/>
	<g>
		<path fill="#0D8545" d="M28.172,19.407c-0.659-0.643-1.437-1.145-2.313-1.503c-0.874-0.355-1.818-0.536-2.803-0.536
			c-0.998,0-1.944,0.181-2.814,0.539c-0.867,0.355-1.643,0.857-2.303,1.5c-0.658,0.639-1.186,1.414-1.561,2.299
			c-0.375,0.884-0.566,1.856-0.566,2.889c0,1.034,0.191,2.007,0.566,2.893c0.375,0.881,0.903,1.657,1.561,2.297
			c0.66,0.641,1.437,1.146,2.302,1.501c0.871,0.358,1.817,0.536,2.815,0.536c0.985,0,1.929-0.178,2.803-0.536
			c0.877-0.354,1.655-0.86,2.313-1.501s1.186-1.417,1.561-2.299c0.377-0.884,0.568-1.857,0.568-2.891
			c0-1.033-0.191-2.005-0.568-2.889C29.358,20.823,28.831,20.046,28.172,19.407z M23.055,29.982c-0.748,0-1.454-0.139-2.099-0.406
			c-0.647-0.272-1.222-0.65-1.699-1.127c-0.482-0.474-0.866-1.047-1.141-1.698c-0.274-0.651-0.414-1.377-0.414-2.157
			c0-0.778,0.14-1.504,0.414-2.155c0.276-0.653,0.659-1.225,1.141-1.698c0.48-0.477,1.052-0.854,1.699-1.125
			c0.646-0.272,1.352-0.411,2.099-0.411c0.734,0,1.436,0.139,2.079,0.411c0.648,0.271,1.224,0.647,1.704,1.125
			c0.479,0.473,0.865,1.048,1.148,1.702c0.277,0.65,0.421,1.375,0.421,2.15c0,0.78-0.144,1.501-0.421,2.151
			c-0.283,0.654-0.669,1.229-1.148,1.703c-0.48,0.477-1.052,0.854-1.704,1.127C24.491,29.844,23.79,29.982,23.055,29.982z"/>
		<path fill="#0D8545" d="M35.913,26.822c0.788,0,1.479-0.161,2.05-0.477c0.555-0.308,1.012-0.695,1.365-1.149
			c0.347-0.444,0.602-0.939,0.765-1.468c0.155-0.512,0.233-1.008,0.233-1.473v-0.106c-0.013-0.417-0.076-0.83-0.188-1.232
			c-0.108-0.394-0.256-0.767-0.441-1.105c-0.187-0.351-0.417-0.666-0.682-0.938c-0.271-0.275-0.568-0.501-0.898-0.682
			c-0.17-0.084-0.361-0.163-0.591-0.248c-0.206-0.076-0.453-0.139-0.779-0.194c-0.286-0.052-0.593-0.091-0.992-0.117
			c-0.157-0.012-0.335-0.032-0.558-0.032c-0.119,0-4.378,0-4.378,0v14.044h1.886v-4.459l5.209,4.459h2.743l-5.486-4.804
			L35.913,26.822z M35.604,25.009l-0.368,0.038h-2.533v-5.559h2.086c0.115,0,0.23-0.006,0.338-0.011
			c0.095-0.004,0.189-0.01,0.276-0.01h0.044c0.094,0.003,0.18,0.003,0.263,0.003c0.191,0,0.358,0.002,0.494,0.018
			c0.214,0.031,0.411,0.072,0.593,0.131c0.156,0.049,0.305,0.121,0.444,0.21c0.378,0.246,0.673,0.588,0.871,1.012
			c0.213,0.454,0.319,0.905,0.319,1.346c0,0.419-0.066,0.814-0.195,1.173c-0.127,0.336-0.347,0.681-0.662,1.021
			c-0.156,0.125-0.313,0.228-0.466,0.309c-0.166,0.085-0.333,0.149-0.504,0.193c-0.187,0.048-0.373,0.077-0.584,0.09
			c-0.054,0.003-0.109,0.01-0.161,0.016C35.766,24.998,35.68,25.009,35.604,25.009z"/>
		<polygon fill="#0D8545" points="39.999,19.488 43.226,19.488 43.226,31.646 45.21,31.646 45.21,19.488 48.734,19.488 
			48.734,17.503 39.999,17.503 		"/>
		<rect x="49.378" y="17.503" fill="#0D8545" width="1.938" height="14.144"/>
		<polygon fill="#0D8545" points="62.126,17.503 52.308,17.503 52.308,19.488 58.921,19.488 52.041,31.646 61.888,31.646 
			61.888,29.861 55.247,29.861 		"/>
	</g>
	<g>
		<g>
			<rect x="63.479" y="17.223" fill="#EE4765" width="14.469" height="14.648"/>
			<g>
				<g>
					<path fill="#FFFFFF" d="M66.592,18.59v2.365h-0.279l-1.051-1.933v1.933h-0.206V18.59h0.204l1.126,2.067V18.59H66.592z"/>
					<path fill="#FFFFFF" d="M67.23,20.753c-0.117-0.129-0.184-0.297-0.184-0.477v-1.083h0.206v1.083
						c0,0.262,0.194,0.471,0.43,0.471c0.234,0,0.43-0.209,0.43-0.471v-1.083h0.206v1.083c0,0.18-0.065,0.348-0.183,0.477
						c-0.119,0.129-0.281,0.202-0.453,0.202C67.513,20.955,67.351,20.882,67.23,20.753z"/>
					<path fill="#FFFFFF" d="M68.862,20.69c-0.095-0.118-0.159-0.259-0.189-0.413c0-0.001-0.018-0.082-0.018-0.205
						c0-0.233,0.072-0.451,0.208-0.615c0.068-0.081,0.147-0.148,0.238-0.193c0.093-0.049,0.191-0.071,0.294-0.071
						c0.173,0,0.305,0.043,0.408,0.127c0.1,0.083,0.155,0.193,0.155,0.316c0,0.125-0.062,0.249-0.171,0.331
						c-0.117,0.09-0.276,0.139-0.463,0.139h-0.403c-0.001,0-0.026,0.002-0.031,0.007c-0.035,0.03-0.023,0.081-0.023,0.081v0.001l0,0
						c0.045,0.318,0.268,0.552,0.529,0.552c0.171,0,0.298-0.056,0.375-0.158l0.062-0.082L70,20.63l-0.067,0.082
						c-0.08,0.112-0.243,0.243-0.537,0.243C69.191,20.955,69.003,20.86,68.862,20.69z M68.876,19.902
						c0.033-0.004,0.046-0.004,0.051-0.004h0.398c0.144,0,0.257-0.032,0.335-0.093c0.061-0.049,0.09-0.109,0.09-0.169
						c0-0.108-0.101-0.239-0.355-0.239C69.148,19.397,68.939,19.61,68.876,19.902z"/>
					<path fill="#FFFFFF" d="M70.495,20.892c-0.108-0.052-0.172-0.122-0.215-0.177l-0.062-0.082l0.163-0.125l0.063,0.082
						c0.065,0.082,0.136,0.158,0.422,0.158c0.258,0,0.406-0.121,0.406-0.311c0-0.079-0.03-0.132-0.104-0.179
						c-0.077-0.045-0.199-0.075-0.316-0.107c-0.131-0.032-0.263-0.066-0.373-0.13c-0.137-0.083-0.21-0.206-0.21-0.358
						c0-0.138,0.052-0.255,0.148-0.336c0.105-0.092,0.259-0.132,0.449-0.132c0.19,0,0.367,0.087,0.484,0.241l0.061,0.083
						l-0.163,0.125l-0.063-0.083c-0.078-0.102-0.195-0.163-0.32-0.163c-0.273,0-0.391,0.091-0.391,0.265
						c0,0.081,0.034,0.136,0.111,0.18c0.078,0.05,0.197,0.082,0.316,0.11c0.128,0.031,0.262,0.065,0.37,0.132
						c0.135,0.079,0.206,0.201,0.206,0.352c0,0.144-0.056,0.278-0.162,0.371c-0.109,0.093-0.266,0.147-0.449,0.147
						C70.71,20.955,70.593,20.935,70.495,20.892z"/>
					<path fill="#FFFFFF" d="M72.449,20.748h0.03v0.208h-0.03c-0.172,0-0.333-0.073-0.453-0.202
						c-0.118-0.129-0.184-0.297-0.184-0.48V18.59h0.206v0.644c0.033-0.006,0.062-0.008,0.094-0.008h0.368v0.206h-0.368
						c-0.042,0-0.068,0.01-0.078,0.021c-0.012,0.011-0.014,0.034-0.016,0.042v0.778C72.018,20.538,72.213,20.748,72.449,20.748z"/>
					<path fill="#FFFFFF" d="M72.903,20.955v-1.083c0-0.179,0.065-0.349,0.186-0.477c0.118-0.13,0.277-0.201,0.45-0.201h0.03v0.204
						h-0.03c-0.234,0-0.43,0.213-0.43,0.475v1.083H72.903z"/>
					<path fill="#FFFFFF" d="M73.942,20.808c-0.125-0.1-0.198-0.234-0.198-0.379c0-0.148,0.072-0.283,0.198-0.383
						c0.12-0.095,0.275-0.145,0.441-0.145l0.357-0.002c0,0,0.038,0,0.052-0.013c0.01-0.012,0.02-0.033,0.021-0.071V19.72
						c0-0.172-0.176-0.322-0.407-0.322c-0.145,0-0.274,0.062-0.349,0.161l-0.061,0.082l-0.166-0.121l0.063-0.084
						c0.111-0.153,0.305-0.241,0.512-0.241c0.161,0,0.313,0.052,0.427,0.146c0.118,0.101,0.188,0.236,0.188,0.38v0.709
						c0,0.145-0.072,0.28-0.197,0.379c-0.121,0.093-0.277,0.147-0.442,0.147C74.217,20.955,74.062,20.901,73.942,20.808z
						 M74.383,20.106c-0.121,0-0.231,0.038-0.315,0.104c-0.076,0.059-0.116,0.137-0.116,0.219c0,0.079,0.041,0.156,0.116,0.217
						c0.084,0.065,0.194,0.102,0.315,0.102c0.121,0,0.231-0.037,0.313-0.102c0.077-0.061,0.117-0.138,0.117-0.217v-0.332
						c-0.037,0.01-0.064,0.01-0.077,0.01H74.383z"/>
					<path fill="#FFFFFF" d="M66.29,22.368V24.2c0,0.146-0.064,0.28-0.184,0.38c-0.114,0.095-0.266,0.147-0.424,0.147
						c-0.208,0-0.4-0.09-0.512-0.24l-0.063-0.083l0.167-0.124l0.062,0.082c0.071,0.101,0.2,0.158,0.346,0.158
						c0.228,0,0.401-0.148,0.401-0.32v-0.038c0-0.014-0.003-0.03-0.01-0.042c-0.012-0.01-0.036-0.02-0.078-0.02h-0.121
						c-0.233,0-0.447-0.091-0.612-0.254c-0.165-0.164-0.254-0.379-0.254-0.61c0-0.233,0.089-0.452,0.254-0.614
						c0.165-0.163,0.379-0.254,0.612-0.254H66.29z M66.087,23.905v-1.332l-0.213,0.003c-0.365,0-0.659,0.296-0.659,0.66
						c0,0.362,0.295,0.659,0.659,0.659h0.118C66.025,23.895,66.063,23.897,66.087,23.905z"/>
					<path fill="#FFFFFF" d="M66.911,23.873c-0.096-0.117-0.161-0.258-0.192-0.412c0-0.001-0.019-0.08-0.019-0.202
						c0-0.233,0.076-0.45,0.211-0.618c0.068-0.082,0.149-0.146,0.237-0.189c0.092-0.049,0.19-0.075,0.293-0.075
						c0.171,0,0.309,0.043,0.412,0.129c0.098,0.081,0.149,0.192,0.149,0.313c0,0.126-0.06,0.247-0.166,0.334
						c-0.119,0.091-0.279,0.135-0.466,0.135h-0.399c-0.004,0-0.027,0.003-0.035,0.01c-0.032,0.03-0.021,0.078-0.021,0.078v0.003l0,0
						c0.046,0.318,0.271,0.553,0.528,0.553c0.174,0,0.299-0.057,0.375-0.157l0.063-0.086l0.164,0.125l-0.062,0.082
						c-0.081,0.112-0.245,0.241-0.541,0.241C67.24,24.138,67.049,24.042,66.911,23.873z M66.924,23.087
						c0.035-0.006,0.047-0.003,0.049-0.003h0.398c0.146,0,0.262-0.035,0.336-0.094c0.061-0.047,0.092-0.107,0.092-0.171
						c0-0.106-0.101-0.235-0.356-0.235C67.195,22.584,66.985,22.795,66.924,23.087z"/>
					<path fill="#FFFFFF" d="M68.542,24.075c-0.108-0.049-0.172-0.12-0.217-0.177l-0.059-0.081l0.16-0.125l0.063,0.083
						c0.067,0.083,0.14,0.157,0.427,0.157c0.257,0,0.402-0.119,0.402-0.311c0-0.081-0.029-0.131-0.105-0.178
						c-0.078-0.046-0.197-0.077-0.313-0.106c-0.127-0.035-0.266-0.068-0.374-0.133c-0.138-0.083-0.208-0.207-0.208-0.361
						c0-0.134,0.052-0.252,0.146-0.334c0.105-0.089,0.257-0.133,0.452-0.133c0.185,0,0.362,0.09,0.48,0.245l0.063,0.08l-0.164,0.125
						l-0.065-0.082c-0.077-0.102-0.194-0.159-0.314-0.159c-0.273,0-0.39,0.088-0.39,0.26c0,0.085,0.029,0.137,0.105,0.183
						c0.079,0.049,0.2,0.081,0.319,0.11c0.126,0.033,0.261,0.068,0.369,0.132c0.137,0.08,0.204,0.201,0.204,0.353
						c0,0.145-0.056,0.279-0.158,0.368c-0.112,0.098-0.268,0.148-0.45,0.148C68.759,24.138,68.641,24.118,68.542,24.075z"/>
					<path fill="#FFFFFF" d="M70.497,23.932h0.028v0.206h-0.028c-0.171,0-0.334-0.072-0.453-0.201
						c-0.118-0.128-0.185-0.299-0.185-0.477v-1.684h0.208v0.642c0.029-0.007,0.059-0.01,0.091-0.01h0.367v0.206h-0.367
						c-0.044,0-0.066,0.01-0.077,0.024c-0.01,0.013-0.014,0.032-0.014,0.041v0.781C70.067,23.724,70.262,23.932,70.497,23.932z"/>
					<path fill="#FFFFFF" d="M71.185,21.954v0.041c0,0.058-0.043,0.104-0.103,0.104c-0.059,0-0.103-0.046-0.103-0.104v-0.041
						c0-0.056,0.044-0.102,0.103-0.102C71.142,21.852,71.185,21.898,71.185,21.954z M70.979,22.376h0.206v1.761h-0.206V22.376z"/>
					<path fill="#FFFFFF" d="M73.054,23.269c0,0.229-0.075,0.444-0.212,0.606c-0.071,0.083-0.151,0.147-0.242,0.191
						c-0.094,0.047-0.196,0.072-0.299,0.072c-0.104,0-0.207-0.024-0.301-0.072c-0.09-0.043-0.173-0.107-0.24-0.191
						c-0.139-0.163-0.217-0.377-0.217-0.606c0-0.229,0.078-0.445,0.217-0.607c0.067-0.08,0.15-0.145,0.24-0.192
						c0.094-0.047,0.197-0.069,0.301-0.069c0.103,0,0.206,0.022,0.299,0.069c0.091,0.048,0.171,0.112,0.242,0.192
						C72.979,22.824,73.054,23.04,73.054,23.269z M72.85,23.269c0-0.372-0.251-0.662-0.55-0.662c-0.301,0-0.553,0.291-0.553,0.662
						c0,0.369,0.252,0.663,0.553,0.663C72.599,23.931,72.85,23.638,72.85,23.269z M72.473,21.761l0.125,0.164l-0.532,0.405
						l-0.125-0.16L72.473,21.761z"/>
					<path fill="#FFFFFF" d="M74.541,24.138v-1.084c0-0.26-0.194-0.47-0.431-0.47c-0.236,0-0.43,0.21-0.43,0.47v1.084h-0.206v-1.084
						c0-0.178,0.064-0.348,0.184-0.473c0.122-0.132,0.281-0.205,0.452-0.205c0.169,0,0.332,0.072,0.451,0.205
						c0.118,0.125,0.183,0.294,0.183,0.473v1.084H74.541z"/>
					<path fill="#FFFFFF" d="M65.219,27.056c-0.095-0.113-0.162-0.257-0.192-0.411c0-0.001-0.019-0.081-0.019-0.203
						c0-0.23,0.074-0.448,0.211-0.615c0.067-0.081,0.146-0.149,0.235-0.193c0.093-0.049,0.191-0.071,0.295-0.071
						c0.172,0,0.307,0.042,0.409,0.125c0.1,0.085,0.154,0.194,0.154,0.318c0,0.124-0.063,0.246-0.17,0.329
						c-0.118,0.093-0.276,0.139-0.464,0.139h-0.401c-0.003,0-0.028,0.004-0.034,0.011c-0.031,0.029-0.022,0.076-0.022,0.076v0.001
						l0.001,0.003c0.049,0.316,0.27,0.551,0.528,0.551c0.171,0,0.301-0.054,0.376-0.157l0.063-0.082l0.162,0.121l-0.062,0.083
						c-0.081,0.111-0.243,0.243-0.541,0.243C65.548,27.324,65.359,27.228,65.219,27.056z M65.233,26.27
						c0.032-0.004,0.045-0.003,0.049-0.003h0.397c0.146,0,0.26-0.033,0.336-0.094c0.062-0.048,0.093-0.107,0.093-0.168
						c0-0.109-0.101-0.24-0.357-0.24C65.505,25.766,65.293,25.981,65.233,26.27z"/>
					<path fill="#FFFFFF" d="M66.852,27.258c-0.109-0.048-0.174-0.118-0.215-0.176L66.574,27l0.164-0.124l0.062,0.079
						c0.063,0.088,0.137,0.16,0.423,0.16c0.26,0,0.406-0.122,0.406-0.311c0-0.08-0.03-0.132-0.106-0.176
						c-0.078-0.047-0.197-0.078-0.315-0.109c-0.128-0.033-0.263-0.066-0.374-0.132c-0.134-0.082-0.206-0.204-0.206-0.36
						c0-0.135,0.05-0.252,0.148-0.335c0.103-0.087,0.255-0.128,0.447-0.128c0.191,0,0.364,0.087,0.483,0.239l0.062,0.081
						l-0.163,0.127l-0.062-0.083c-0.081-0.104-0.196-0.162-0.321-0.162c-0.271,0-0.39,0.093-0.39,0.262
						c0,0.086,0.03,0.139,0.108,0.185c0.081,0.046,0.2,0.079,0.316,0.108c0.129,0.035,0.262,0.067,0.373,0.132
						c0.133,0.08,0.207,0.202,0.207,0.353c0,0.147-0.06,0.277-0.162,0.369c-0.114,0.099-0.268,0.147-0.452,0.147
						C67.066,27.321,66.948,27.304,66.852,27.258z"/>
					<path fill="#FFFFFF" d="M69.261,27.123c-0.119-0.128-0.184-0.299-0.184-0.477v-1.083h0.205v1.083
						c0,0.261,0.196,0.473,0.429,0.473c0.234,0,0.43-0.211,0.43-0.473v-1.083h0.206v1.083c0,0.178-0.065,0.349-0.183,0.477
						c-0.119,0.129-0.282,0.201-0.453,0.201C69.54,27.324,69.381,27.252,69.261,27.123z"/>
					<path fill="#FFFFFF" d="M71.839,27.324V26.24c0-0.265-0.195-0.475-0.43-0.475c-0.234,0-0.43,0.209-0.43,0.475v1.083h-0.207
						V26.24c0-0.18,0.066-0.35,0.185-0.478c0.118-0.128,0.279-0.199,0.452-0.199c0.171,0,0.333,0.071,0.451,0.199
						c0.12,0.128,0.183,0.298,0.183,0.478v1.083H71.839z"/>
					<path fill="#FFFFFF" d="M72.629,27.177c-0.127-0.1-0.196-0.234-0.196-0.379c0-0.148,0.069-0.285,0.196-0.383
						c0.12-0.096,0.275-0.148,0.439-0.148h0.359c0,0,0.039,0,0.054-0.013c0.01-0.011,0.017-0.033,0.021-0.07v-0.097
						c0-0.169-0.176-0.321-0.406-0.321c-0.148,0-0.278,0.064-0.352,0.161l-0.059,0.084l-0.167-0.126l0.061-0.082
						c0.118-0.152,0.309-0.24,0.518-0.24c0.16,0,0.311,0.051,0.425,0.148c0.116,0.096,0.184,0.232,0.184,0.376v0.711
						c0,0.145-0.068,0.28-0.194,0.379c-0.12,0.093-0.278,0.146-0.444,0.146C72.904,27.324,72.749,27.271,72.629,27.177z
						 M73.068,26.474c-0.117,0-0.23,0.038-0.312,0.104c-0.077,0.059-0.116,0.138-0.116,0.22c0,0.079,0.04,0.155,0.116,0.218
						c0.082,0.064,0.195,0.1,0.312,0.1c0.124,0,0.233-0.035,0.316-0.1c0.078-0.063,0.119-0.14,0.119-0.218v-0.331
						c-0.04,0.011-0.065,0.011-0.078,0.007H73.068z"/>
					<path fill="#FFFFFF" d="M65.038,30.506v-1.081c0-0.181,0.064-0.347,0.184-0.478c0.121-0.128,0.282-0.203,0.451-0.203h0.029
						v0.207h-0.029c-0.233,0-0.429,0.209-0.429,0.474v1.081H65.038z"/>
					<path fill="#FFFFFF" d="M66.088,30.239c-0.093-0.113-0.158-0.257-0.188-0.408c-0.003-0.005-0.022-0.082-0.022-0.204
						c0-0.233,0.077-0.451,0.21-0.617c0.069-0.08,0.146-0.145,0.237-0.19c0.092-0.049,0.191-0.075,0.295-0.075
						c0.171,0,0.309,0.044,0.41,0.132c0.098,0.077,0.155,0.189,0.155,0.311c0,0.127-0.063,0.247-0.171,0.335
						c-0.117,0.089-0.276,0.135-0.464,0.135h-0.403c-0.002,0-0.025,0.003-0.032,0.012c-0.032,0.028-0.022,0.076-0.022,0.076l0,0
						v0.001c0.047,0.321,0.27,0.557,0.529,0.557c0.173,0,0.301-0.058,0.376-0.161l0.062-0.083l0.163,0.123l-0.059,0.086
						c-0.085,0.109-0.246,0.238-0.542,0.238C66.418,30.506,66.228,30.41,66.088,30.239z M66.102,29.456
						c0.033-0.003,0.045-0.003,0.05-0.003h0.398c0.147,0,0.262-0.035,0.336-0.095c0.061-0.046,0.092-0.108,0.092-0.171
						c0-0.107-0.101-0.234-0.357-0.234C66.376,28.953,66.164,29.164,66.102,29.456z"/>
					<path fill="#FFFFFF" d="M67.656,30.361c-0.127-0.1-0.198-0.235-0.198-0.384c0-0.144,0.071-0.28,0.198-0.378
						c0.119-0.094,0.275-0.146,0.442-0.146h0.355c0,0,0.036,0,0.054-0.016c0.01-0.008,0.02-0.031,0.021-0.068v-0.096
						c0-0.172-0.177-0.32-0.404-0.32c-0.15,0-0.279,0.061-0.353,0.156l-0.06,0.085l-0.167-0.124l0.062-0.083
						c0.113-0.152,0.308-0.243,0.518-0.243c0.155,0,0.31,0.053,0.426,0.148c0.116,0.1,0.184,0.238,0.184,0.381v0.704
						c0,0.148-0.071,0.284-0.194,0.384c-0.121,0.096-0.274,0.145-0.441,0.145S67.775,30.457,67.656,30.361z M68.098,29.66
						c-0.124,0-0.232,0.034-0.318,0.1c-0.074,0.063-0.116,0.139-0.116,0.218c0,0.081,0.042,0.159,0.116,0.222
						c0.085,0.064,0.194,0.102,0.318,0.102c0.12,0,0.229-0.037,0.312-0.102c0.078-0.063,0.118-0.141,0.118-0.222v-0.326
						c-0.039,0.009-0.068,0.009-0.078,0.006L68.098,29.66z"/>
					<path fill="#FFFFFF" d="M69.115,28.142h0.206v2.364h-0.206V28.142z"/>
					<path fill="#FFFFFF" d="M70.163,28.322v0.042c0,0.058-0.047,0.104-0.102,0.104c-0.059,0-0.104-0.046-0.104-0.104v-0.042
						c0-0.056,0.044-0.103,0.104-0.103C70.115,28.219,70.163,28.266,70.163,28.322z M69.957,28.745h0.206v1.761h-0.206V28.745z"/>
					<path fill="#FFFFFF" d="M70.515,29.643c0-0.232,0.09-0.451,0.254-0.615c0.163-0.161,0.38-0.251,0.612-0.251H71.5
						c0.044,0,0.066-0.011,0.078-0.022c0.016-0.017,0.016-0.046,0.016-0.046v-0.567h0.205v2.364h-0.417
						c-0.232,0-0.449-0.088-0.612-0.252C70.605,30.09,70.515,29.873,70.515,29.643z M71.499,28.982h-0.117
						c-0.365,0-0.66,0.295-0.66,0.66c0,0.364,0.295,0.66,0.66,0.66h0.212v-1.332C71.562,28.977,71.533,28.982,71.499,28.982z"/>
					<path fill="#FFFFFF" d="M72.391,30.361c-0.126-0.1-0.195-0.235-0.195-0.384c0-0.144,0.069-0.28,0.195-0.378
						c0.118-0.094,0.275-0.146,0.441-0.146h0.355c0.004,0,0.037,0,0.053-0.016c0.011-0.008,0.021-0.031,0.021-0.068v-0.096
						c0-0.172-0.179-0.32-0.406-0.32c-0.144,0-0.277,0.061-0.348,0.156l-0.064,0.085l-0.162-0.124l0.061-0.083
						c0.112-0.152,0.306-0.243,0.513-0.243c0.16,0,0.311,0.053,0.427,0.148c0.12,0.1,0.186,0.238,0.186,0.381v0.704
						c0,0.148-0.069,0.284-0.194,0.384c-0.122,0.096-0.278,0.145-0.443,0.145C72.666,30.506,72.509,30.457,72.391,30.361z
						 M72.833,29.66c-0.119,0-0.231,0.034-0.313,0.1c-0.077,0.063-0.116,0.139-0.116,0.218c0,0.081,0.039,0.159,0.116,0.222
						c0.082,0.064,0.194,0.102,0.313,0.102s0.233-0.037,0.312-0.102c0.078-0.063,0.118-0.141,0.118-0.222v-0.326
						c-0.039,0.009-0.066,0.009-0.078,0.006L72.833,29.66z"/>
					<path fill="#FFFFFF" d="M73.757,29.643c0-0.232,0.087-0.451,0.253-0.615c0.165-0.161,0.381-0.251,0.613-0.251h0.119
						c0.04,0,0.068-0.011,0.079-0.022c0.013-0.017,0.013-0.046,0.013-0.046v-0.567h0.207v2.364h-0.418
						c-0.232,0-0.448-0.088-0.61-0.252C73.845,30.09,73.757,29.873,73.757,29.643z M74.742,28.982h-0.119
						c-0.364,0-0.659,0.295-0.659,0.66c0,0.364,0.295,0.66,0.659,0.66h0.211v-1.332C74.802,28.977,74.776,28.982,74.742,28.982z"/>
				</g>
			</g>
		</g>
		<g>
			<g>
				
					<linearGradient id="SVGID_1_" gradientUnits="userSpaceOnUse" x1="15.624" y1="138.3965" x2="18.0386" y2="138.3965" gradientTransform="matrix(0.9996 -0.0271 0.0271 0.9996 59.7378 -118.1245)">
					<stop  offset="0.4386" style="stop-color:#FFCA17"/>
					<stop  offset="1" style="stop-color:#F7971F"/>
				</linearGradient>
				<path fill="url(#SVGID_1_)" d="M79.135,20.879c0.038-0.013,1.458-1.044,1.458-1.044l0.915-0.495l-1.531-0.62
					c0,0-0.206-0.093-0.289,0.034C79.603,18.886,79.135,20.879,79.135,20.879z"/>
				
					<linearGradient id="SVGID_2_" gradientUnits="userSpaceOnUse" x1="16.2285" y1="136.6445" x2="18.0386" y2="136.6445" gradientTransform="matrix(0.9996 -0.0271 0.0271 0.9996 59.7378 -118.1245)">
					<stop  offset="0.4386" style="stop-color:#FFCA17"/>
					<stop  offset="1" style="stop-color:#F7971F"/>
				</linearGradient>
				<path fill="url(#SVGID_2_)" d="M81.509,19.34l-1.344-2.692l-0.463,1.641c0,0-0.106,0.268,0.097,0.402
					C80.005,18.821,81.509,19.34,81.509,19.34z"/>
				
					<linearGradient id="SVGID_3_" gradientUnits="userSpaceOnUse" x1="18.0166" y1="138.2344" x2="20.3477" y2="138.2344" gradientTransform="matrix(0.9996 -0.0271 0.0271 0.9996 59.7378 -118.1245)">
					<stop  offset="0" style="stop-color:#F7971F"/>
					<stop  offset="0.5614" style="stop-color:#FFCA17"/>
				</linearGradient>
				<path fill="url(#SVGID_3_)" d="M81.509,19.34c0,0,1.235-0.286,1.604-0.333c0.365-0.048,0.693-0.109,0.693-0.109
					s0.015,0.075-0.11,0.129c-0.125,0.055-1.303,0.646-1.465,0.75c-0.162,0.108-0.385,0.342-0.372,0.383
					C81.874,20.196,81.398,19.955,81.509,19.34z"/>
				
					<linearGradient id="SVGID_4_" gradientUnits="userSpaceOnUse" x1="16.3267" y1="139.21" x2="18.3536" y2="138.6966" gradientTransform="matrix(0.9996 -0.0271 0.0271 0.9996 59.7378 -118.1245)">
					<stop  offset="0.4386" style="stop-color:#FFCA17"/>
					<stop  offset="1" style="stop-color:#F7971F"/>
				</linearGradient>
				<path fill="url(#SVGID_4_)" d="M79.799,21.369l0.632-1.414c0,0,0.342-0.282,0.476-0.355c0.137-0.078,0.602-0.259,0.602-0.259
					s-0.03,0.357,0.088,0.484c0.118,0.122,0.262,0.336,0.262,0.336L79.799,21.369z"/>
			</g>
			<g>
				
					<linearGradient id="SVGID_5_" gradientUnits="userSpaceOnUse" x1="-7.1455" y1="718.5449" x2="-3.4785" y2="718.5449" gradientTransform="matrix(0.9032 -0.4292 0.4292 0.9032 -219.4348 -635.9694)">
					<stop  offset="0.4386" style="stop-color:#EA1E51"/>
					<stop  offset="1" style="stop-color:#C42228"/>
				</linearGradient>
				<path fill="url(#SVGID_5_)" d="M83.22,17.578c0.044-0.046,1.385-2.346,1.385-2.346l0.965-1.251l-2.503,0.082
					c0,0-0.345-0.007-0.383,0.223C82.645,14.52,83.22,17.578,83.22,17.578z"/>
				
					<linearGradient id="SVGID_6_" gradientUnits="userSpaceOnUse" x1="-6.2275" y1="715.8818" x2="-3.4785" y2="715.8818" gradientTransform="matrix(0.9032 -0.4292 0.4292 0.9032 -219.4348 -635.9694)">
					<stop  offset="0.4386" style="stop-color:#EA1E51"/>
					<stop  offset="1" style="stop-color:#C42228"/>
				</linearGradient>
				<path fill="url(#SVGID_6_)" d="M85.571,13.98l-3.521-2.917l0.362,2.563c0,0,0.016,0.438,0.388,0.496
					C83.167,14.183,85.571,13.98,85.571,13.98z"/>
				
					<linearGradient id="SVGID_7_" gradientUnits="userSpaceOnUse" x1="-3.5112" y1="718.2969" x2="0.0317" y2="718.2969" gradientTransform="matrix(0.9032 -0.4292 0.4292 0.9032 -219.4348 -635.9694)">
					<stop  offset="0" style="stop-color:#C42228"/>
					<stop  offset="0.5614" style="stop-color:#EA1E51"/>
				</linearGradient>
				<path fill="url(#SVGID_7_)" d="M85.571,13.98c0,0,1.541-1.157,2.023-1.449c0.48-0.293,0.9-0.577,0.9-0.577
					s0.067,0.093-0.073,0.248c-0.142,0.151-1.416,1.697-1.576,1.944c-0.161,0.246-0.322,0.709-0.282,0.753
					C86.604,14.941,85.795,14.9,85.571,13.98z"/>
				
					<linearGradient id="SVGID_8_" gradientUnits="userSpaceOnUse" x1="-6.0791" y1="719.7803" x2="-2.993" y2="718.9987" gradientTransform="matrix(0.9032 -0.4292 0.4292 0.9032 -219.4348 -635.9694)">
					<stop  offset="0.4386" style="stop-color:#EA1E51"/>
					<stop  offset="1" style="stop-color:#C42228"/>
				</linearGradient>
				<path fill="url(#SVGID_8_)" d="M84.441,17.851l0.013-2.356c0,0,0.303-0.6,0.438-0.784c0.143-0.196,0.679-0.73,0.679-0.73
					s0.179,0.513,0.417,0.615c0.244,0.097,0.576,0.304,0.576,0.304L84.441,17.851z"/>
			</g>
			<g>
				
					<linearGradient id="SVGID_9_" gradientUnits="userSpaceOnUse" x1="-49.8633" y1="837.1055" x2="-47.8193" y2="837.1055" gradientTransform="matrix(0.8633 -0.5048 0.5048 0.8633 -301.5808 -732.604)">
					<stop  offset="0.4386" style="stop-color:#4169B0"/>
					<stop  offset="1" style="stop-color:#4478BB"/>
				</linearGradient>
				<path fill="url(#SVGID_9_)" d="M78.407,16.035c0.022-0.026,0.657-1.37,0.657-1.37l0.477-0.741l-1.388,0.166
					c0,0-0.19,0.013-0.2,0.142C77.942,14.363,78.407,16.035,78.407,16.035z"/>
				
					<linearGradient id="SVGID_10_" gradientUnits="userSpaceOnUse" x1="-49.3511" y1="835.6201" x2="-47.8193" y2="835.6201" gradientTransform="matrix(0.8633 -0.5048 0.5048 0.8633 -301.5808 -732.604)">
					<stop  offset="0.4386" style="stop-color:#4169B0"/>
					<stop  offset="1" style="stop-color:#4478BB"/>
				</linearGradient>
				<path fill="url(#SVGID_10_)" d="M79.541,13.924l-2.094-1.453l0.323,1.404c0,0,0.031,0.245,0.237,0.259
					C78.215,14.153,79.541,13.924,79.541,13.924z"/>
				
					<linearGradient id="SVGID_11_" gradientUnits="userSpaceOnUse" x1="-47.8374" y1="836.9668" x2="-45.8594" y2="836.9668" gradientTransform="matrix(0.8633 -0.5048 0.5048 0.8633 -301.5808 -732.604)">
					<stop  offset="0" style="stop-color:#4478BB"/>
					<stop  offset="0.5614" style="stop-color:#4169B0"/>
				</linearGradient>
				<path fill="url(#SVGID_11_)" d="M79.541,13.924c0,0,0.803-0.72,1.056-0.904s0.473-0.364,0.473-0.364s0.042,0.05-0.029,0.141
					c-0.07,0.094-0.704,1.014-0.782,1.157c-0.078,0.144-0.149,0.41-0.123,0.434C80.161,14.409,79.709,14.423,79.541,13.924z"/>
				
					<linearGradient id="SVGID_12_" gradientUnits="userSpaceOnUse" x1="-49.269" y1="837.7939" x2="-47.5497" y2="837.3585" gradientTransform="matrix(0.8633 -0.5048 0.5048 0.8633 -301.5808 -732.604)">
					<stop  offset="0.4386" style="stop-color:#4169B0"/>
					<stop  offset="1" style="stop-color:#4478BB"/>
				</linearGradient>
				<path fill="url(#SVGID_12_)" d="M79.098,16.128l-0.106-1.309c0,0,0.141-0.349,0.208-0.457c0.068-0.116,0.34-0.439,0.34-0.439
					s0.125,0.276,0.262,0.321c0.141,0.046,0.333,0.144,0.333,0.144L79.098,16.128z"/>
			</g>
		</g>
	</g>
	<path fill="#EE4765" d="M52.16,15.186l-1.162,1.847H49.55l1.08-1.847H52.16z"/>
	<g>
		<path fill="none" d="M56.523,8.755c0.115-0.016,0.227,0.003,0.335-0.004c0.239-0.018,0.472-0.08,0.696-0.139
			c0.181-0.042,0.375-0.122,0.609-0.246c0.18-0.09,0.37-0.219,0.568-0.382c0.381-0.408,0.649-0.824,0.798-1.234
			c0.158-0.43,0.237-0.901,0.237-1.397c0-0.531-0.129-1.073-0.38-1.61c-0.245-0.522-0.589-0.922-1.053-1.225
			c-0.174-0.111-0.358-0.197-0.549-0.258c-0.211-0.067-0.449-0.119-0.704-0.151c-0.091-0.013-0.186-0.03-0.284-0.044
			c-0.194-0.033-0.395-0.063-0.602-0.068c-0.166-0.004-0.331-0.027-0.508-0.042c-0.21-0.017-0.426-0.036-0.646-0.036h-2.086V8.77
			h3.008C56.153,8.77,56.34,8.773,56.523,8.755z"/>
		<polygon fill="#3BB24A" points="52.954,15.964 52.954,14.877 52.18,15.964 		"/>
		<path fill="#3BB24A" d="M59.071,15.964h2.676l-6.281-5.458h1.259c0.875,0,1.641-0.177,2.275-0.527
			c0.617-0.344,1.125-0.771,1.515-1.275c0.385-0.498,0.676-1.045,0.854-1.633c0.175-0.576,0.27-1.128,0.27-1.642v-0.11
			c0-0.417-0.075-0.87-0.217-1.379C61.298,3.5,61.133,3.086,60.927,2.7c-0.209-0.39-0.469-0.74-0.763-1.043
			c-0.298-0.305-0.623-0.549-0.962-0.738l-0.021-0.012c-0.196-0.095-0.418-0.191-0.665-0.282c-0.24-0.083-0.521-0.156-0.869-0.217
			c-0.28-0.05-0.625-0.076-1.118-0.11c-0.358-0.023-0.777-0.017-1.248-0.017h-3.965v8.773v5.722h1.637v-4.028L59.071,15.964z
			 M52.954,1.919h2.086c0.221,0,0.437,0.019,0.646,0.036c0.177,0.015,0.342,0.03,0.508,0.032c0.207,0.005,0.408,0.039,0.602,0.073
			c0.098,0.016,0.193,0.035,0.284,0.044c0.255,0.035,0.493,0.086,0.704,0.152c0.191,0.062,0.375,0.149,0.549,0.261
			c0.464,0.302,0.808,0.703,1.053,1.225c0.251,0.538,0.38,1.08,0.38,1.61c0,0.496-0.079,0.967-0.237,1.397
			c-0.148,0.41-0.417,0.826-0.798,1.23c-0.199,0.166-0.389,0.295-0.568,0.385c-0.234,0.124-0.428,0.202-0.609,0.246
			c-0.224,0.058-0.457,0.115-0.696,0.134c-0.108,0.009-0.22-0.007-0.335,0.009c-0.184,0.018-0.37,0.015-0.562,0.015h-3.008V1.919z"
			/>
	</g>
</g>
</svg>
