<?xml version="1.0" encoding="utf-8"?>
<!-- Generator: Adobe Illustrator 16.0.0, SVG Export Plug-In . SVG Version: 6.00 Build 0)  -->
<!DOCTYPE svg PUBLIC "-//W3C//DTD SVG 1.1//EN" "http://www.w3.org/Graphics/SVG/1.1/DTD/svg11.dtd">
<svg version="1.1" id="Capa_1" xmlns="http://www.w3.org/2000/svg" xmlns:xlink="http://www.w3.org/1999/xlink" x="0px" y="0px"
	 width="106.488px" height="72.045px" viewBox="0 0 106.488 72.045" enable-background="new 0 0 106.488 72.045"
	 xml:space="preserve">
<g>
	<g id="Layer_1_11_">
		<g>
			<path fill="#FFFFFF" d="M83.064,51.61L72.58,12.49l-0.699-2.607c-0.776-2.88-3.733-4.591-6.613-3.817
				c-2.33,0.622-3.867,2.685-3.971,4.972L4.515,41.862C3.856,41.247,2.935,40.935,2,41.182c-1.438,0.388-2.294,1.866-1.907,3.309
				l1.046,3.913l2.096,7.824l1.046,3.913c0.386,1.446,1.868,2.302,3.309,1.908c0.936-0.243,1.579-0.978,1.842-1.839l4.308-0.115
				c1.195,6.779,7.112,11.95,14.229,11.95c1.291,0,2.557-0.167,3.77-0.491c2.419-0.649,4.637-1.93,6.457-3.743
				c2.311-2.313,3.678-5.277,4.065-8.469l31.755-0.829c1.234,1.934,3.601,2.947,5.931,2.324c2.879-0.773,4.588-3.732,3.818-6.617
				L83.064,51.61z M34.376,63.989c-1.711,1.719-3.981,2.658-6.41,2.658c-4.173,0-7.658-2.854-8.709-6.695l17.56-0.467
				C36.459,61.181,35.629,62.737,34.376,63.989z M13.454,49.294l50.469-27.395l6.935,25.887L13.454,49.294z"/>
			<path fill="#FFFFFF" d="M91.07,31.296l13.038-3.493c1.443-0.384,2.298-1.866,1.911-3.308c-0.383-1.44-1.865-2.296-3.305-1.911
				l-13.041,3.497c-1.437,0.385-2.295,1.865-1.908,3.305C88.148,30.827,89.635,31.682,91.07,31.296z"/>
			<path fill="#FFFFFF" d="M104.486,48.345l-13.038-3.496c-1.449-0.385-2.925,0.467-3.309,1.906
				c-0.384,1.447,0.468,2.926,1.911,3.313l13.037,3.493c0.475,0.127,0.953,0.12,1.395,0c0.9-0.243,1.651-0.946,1.914-1.911
				C106.779,50.21,105.926,48.728,104.486,48.345z"/>
			<path fill="#FFFFFF" d="M82.014,14.854c0.439-0.119,0.861-0.352,1.206-0.699l9.548-9.545c1.053-1.056,1.053-2.764,0-3.82
				c-1.054-1.053-2.769-1.055-3.822,0l-9.548,9.549c-1.053,1.053-1.053,2.761,0,3.82C80.109,14.862,81.113,15.093,82.014,14.854z"/>
		</g>
	</g>
</g>
</svg>
