<?xml version="1.0" encoding="utf-8"?>
<!-- Generator: Adobe Illustrator 16.0.0, SVG Export Plug-In . SVG Version: 6.00 Build 0)  -->
<!DOCTYPE svg PUBLIC "-//W3C//DTD SVG 1.1//EN" "http://www.w3.org/Graphics/SVG/1.1/DTD/svg11.dtd">
<svg version="1.1" id="Capa_1" xmlns="http://www.w3.org/2000/svg" xmlns:xlink="http://www.w3.org/1999/xlink" x="0px" y="0px"
	 width="35.333px" height="25.396px" viewBox="0 0 35.333 25.396" enable-background="new 0 0 35.333 25.396" xml:space="preserve">
<g>
	<g>
		<polygon fill="#FFFFFF" points="19.875,9.938 15.458,9.938 15.458,18.771 12.146,18.771 17.667,25.396 23.188,18.771 
			19.875,18.771 		"/>
		<path fill="#FFFFFF" d="M30.459,9.067c-1.022-2.717-3.646-4.65-6.72-4.65c-0.708,0-1.392,0.103-2.038,0.293
			C19.95,1.883,16.82,0,13.25,0C7.835,0,3.43,4.333,3.315,9.72C1.333,10.867,0,13.011,0,15.458c0,3.658,2.968,6.625,6.625,6.625
			h4.969l-1.841-2.208H6.622c-2.432,0-4.413-1.978-4.413-4.417c0-2.09,1.454-3.844,3.408-4.301c-0.064-0.396-0.096-0.805-0.096-1.22
			c0-4.269,3.46-7.729,7.729-7.729c3.491,0,6.442,2.316,7.401,5.494c0.849-0.676,1.92-1.077,3.089-1.077
			c2.558,0,4.665,1.933,4.938,4.417h0.033c2.434,0,4.414,1.977,4.414,4.416c0,2.436-1.976,4.417-4.414,4.417h-3.131l-1.841,2.208
			h4.969c3.657,0,6.625-2.973,6.625-6.625C35.333,12.405,33.268,9.835,30.459,9.067z"/>
	</g>
</g>
</svg>
