<?xml version="1.0" encoding="utf-8"?>
<!-- Generator: Adobe Illustrator 16.0.0, SVG Export Plug-In . SVG Version: 6.00 Build 0)  -->
<!DOCTYPE svg PUBLIC "-//W3C//DTD SVG 1.1//EN" "http://www.w3.org/Graphics/SVG/1.1/DTD/svg11.dtd">
<svg version="1.1" id="Capa_1" xmlns="http://www.w3.org/2000/svg" xmlns:xlink="http://www.w3.org/1999/xlink" x="0px" y="0px"
	 width="54.092px" height="55.077px" viewBox="0 0 54.092 55.077" enable-background="new 0 0 54.092 55.077" xml:space="preserve">
<g>
	<g>
		<g>
			
				<radialGradient id="SVGID_1_" cx="-372.7124" cy="-51.8799" r="2.603" gradientTransform="matrix(0 -1 11.042 0 600.8518 -320.0703)" gradientUnits="userSpaceOnUse">
				<stop  offset="0" style="stop-color:#0F0600;stop-opacity:0.95"/>
				<stop  offset="0.2961" style="stop-color:#0F0600;stop-opacity:0.8253"/>
				<stop  offset="1" style="stop-color:#0F0600;stop-opacity:0"/>
			</radialGradient>
			<ellipse opacity="0.25" fill="url(#SVGID_1_)" cx="27.995" cy="52.642" rx="27.993" ry="2.435"/>
		</g>
		<g>
			<path fill="#FFFFFF" d="M1.896,7.931v36.333c0,4.381,3.551,7.933,7.932,7.933h5.279h25.182h5.872c4.38,0,7.932-3.552,7.932-7.933
				V7.931C54.092,3.55,50.541,0,46.161,0H9.828C5.446,0,1.896,3.55,1.896,7.931z"/>
			<g>
				<path opacity="0.7" fill="#60CAEF" d="M50.083,41.481c0,3.708-3.006,6.715-6.714,6.715H12.617c-3.708,0-6.713-3.007-6.713-6.715
					V10.729c0-3.707,3.005-6.714,6.713-6.714H43.37c3.708,0,6.714,3.007,6.714,6.714V41.481z"/>
				<path fill="#FFFFFF" d="M43.777,18.02c-1.039,0.461-2.154,0.772-3.324,0.911c1.194-0.717,2.113-1.85,2.545-3.203
					c-1.117,0.665-2.355,1.146-3.676,1.406c-1.057-1.125-2.561-1.829-4.225-1.829c-3.196,0-5.788,2.593-5.788,5.789
					c0,0.454,0.051,0.896,0.15,1.319c-4.812-0.24-9.075-2.545-11.931-6.049c-0.497,0.855-0.783,1.85-0.783,2.912
					c0,2.007,1.021,3.779,2.574,4.816c-0.947-0.029-1.84-0.293-2.621-0.725v0.074c0,2.803,1.995,5.143,4.642,5.674
					c-0.485,0.133-0.998,0.205-1.524,0.205c-0.374,0-0.737-0.039-1.089-0.105c0.736,2.299,2.872,3.973,5.407,4.02
					c-1.98,1.553-4.476,2.479-7.189,2.479c-0.467,0-0.927-0.028-1.379-0.081c2.561,1.64,5.603,2.599,8.873,2.599
					c10.645,0,16.466-8.818,16.466-16.467c0-0.249-0.005-0.5-0.015-0.75C42.017,20.2,43,19.181,43.777,18.02z"/>
			</g>
		</g>
	</g>
</g>
</svg>
