<?xml version="1.0" encoding="utf-8"?>
<!-- Generator: Adobe Illustrator 16.0.0, SVG Export Plug-In . SVG Version: 6.00 Build 0)  -->
<!DOCTYPE svg PUBLIC "-//W3C//DTD SVG 1.1//EN" "http://www.w3.org/Graphics/SVG/1.1/DTD/svg11.dtd">
<svg version="1.1" id="Capa_1" xmlns="http://www.w3.org/2000/svg" xmlns:xlink="http://www.w3.org/1999/xlink" x="0px" y="0px"
	 width="53.646px" height="56.082px" viewBox="0 0 53.646 56.082" enable-background="new 0 0 53.646 56.082" xml:space="preserve">
<g>
	
		<radialGradient id="SVGID_1_" cx="-372.6152" cy="-53.8721" r="2.6031" gradientTransform="matrix(0 -1 11.042 0 620.9541 -320.167)" gradientUnits="userSpaceOnUse">
		<stop  offset="0" style="stop-color:#0F0600;stop-opacity:0.95"/>
		<stop  offset="0.2961" style="stop-color:#0F0600;stop-opacity:0.8253"/>
		<stop  offset="1" style="stop-color:#0F0600;stop-opacity:0"/>
	</radialGradient>
	<ellipse opacity="0.25" fill="url(#SVGID_1_)" cx="26.099" cy="52.448" rx="27.995" ry="2.435"/>
</g>
<g>
	<g>
		<g>
			
				<radialGradient id="SVGID_2_" cx="-373.8149" cy="-51.9775" r="2.603" gradientTransform="matrix(0 -1 11.042 0 601.9292 -320.167)" gradientUnits="userSpaceOnUse">
				<stop  offset="0" style="stop-color:#0F0600;stop-opacity:0.95"/>
				<stop  offset="0.2961" style="stop-color:#0F0600;stop-opacity:0.8253"/>
				<stop  offset="1" style="stop-color:#0F0600;stop-opacity:0"/>
			</radialGradient>
			<ellipse opacity="0.25" fill="url(#SVGID_2_)" cx="27.994" cy="53.648" rx="27.992" ry="2.434"/>
		</g>
		<g>
			<path fill="#FFFFFF" d="M1.449,9.08v36.333c0,4.382,3.551,7.931,7.932,7.931h36.333c4.381,0,7.933-3.549,7.933-7.931V9.08
				c0-4.381-3.552-7.932-7.933-7.932H9.381C5,1.148,1.449,4.699,1.449,9.08z"/>
			<g>
				<path fill="#BC1B1B" d="M49.724,42.775c0,3.723-3.017,6.74-6.74,6.74H12.111c-3.722,0-6.739-3.018-6.739-6.74V11.904
					c0-3.723,3.018-6.74,6.739-6.74h30.872c3.724,0,6.74,3.018,6.74,6.74V42.775z"/>
				<path fill="#FFFFFF" d="M24.306,10.613h-1.931l-1.302,5.006l-1.354-5.006h-2.011c0.402,1.182,0.822,2.369,1.225,3.553
					c0.611,1.775,0.994,3.115,1.166,4.031v5.162h1.909v-5.162L24.306,10.613z M29.407,20.285v-3.328
					c0-1.016-0.174-1.756-0.534-2.237c-0.478-0.648-1.146-0.975-2.008-0.975c-0.857,0-1.529,0.326-2.004,0.975
					c-0.368,0.481-0.54,1.222-0.54,2.237v3.328c0,1.009,0.172,1.756,0.54,2.234c0.475,0.646,1.146,0.973,2.004,0.973
					c0.861,0,1.53-0.326,2.008-0.973C29.233,22.041,29.407,21.294,29.407,20.285z M27.686,20.609c0,0.878-0.266,1.318-0.82,1.318
					c-0.557,0-0.823-0.44-0.823-1.318v-3.997c0-0.879,0.267-1.317,0.823-1.317c0.555,0,0.82,0.438,0.82,1.317V20.609z
					 M35.773,23.359v-9.497h-1.722v7.259c-0.384,0.539-0.745,0.807-1.089,0.807c-0.231,0-0.365-0.137-0.402-0.404
					c-0.021-0.055-0.021-0.266-0.021-0.669v-6.992h-1.716v7.51c0,0.669,0.06,1.124,0.153,1.413c0.17,0.482,0.553,0.707,1.108,0.707
					c0.627,0,1.28-0.383,1.967-1.168v1.035H35.773z"/>
				<path fill="#FFFFFF" d="M41.349,34.889c0,2.197-0.001,4.529-0.494,6.662c-0.345,1.499-1.571,2.604-3.046,2.771
					c-3.495,0.388-7.032,0.391-10.555,0.388c-3.521,0.003-7.058,0-10.553-0.388c-1.477-0.168-2.702-1.272-3.047-2.771
					c-0.49-2.133-0.49-4.465-0.49-6.662c0-2.199,0.006-4.527,0.497-6.664c0.344-1.497,1.569-2.604,3.045-2.766
					c3.495-0.393,7.032-0.394,10.555-0.393c3.52-0.001,7.058,0,10.554,0.393c1.477,0.162,2.702,1.269,3.046,2.766
					C41.351,30.361,41.349,32.689,41.349,34.889z"/>
				<path fill="#BC1B1B" d="M21.203,30.148v-1.777h-5.939v1.777h2.004v10.838h1.895V30.148H21.203z M24.645,40.986v-1.024
					c-0.676,0.776-1.318,1.153-1.946,1.153c-0.548,0-0.929-0.221-1.096-0.698c-0.095-0.286-0.151-0.733-0.151-1.397v-7.434h1.702
					v6.922c0,0.398,0,0.605,0.015,0.661c0.043,0.265,0.172,0.397,0.4,0.397c0.341,0,0.701-0.264,1.076-0.795v-7.186h1.705v9.4
					H24.645z M31.117,38.301c0,0.85-0.251,1.266-0.741,1.266c-0.28,0-0.563-0.133-0.849-0.416v-5.731
					c0.285-0.28,0.568-0.415,0.849-0.415c0.49,0,0.741,0.437,0.741,1.283V38.301z M32.82,38.166v-3.744
					c0-0.889-0.059-1.513-0.172-1.89c-0.229-0.704-0.684-1.062-1.361-1.062c-0.626,0-1.21,0.344-1.76,1.02v-4.119h-1.703v12.615
					h1.703v-0.912c0.568,0.705,1.153,1.041,1.76,1.041c0.678,0,1.133-0.357,1.361-1.053C32.762,39.662,32.82,39.037,32.82,38.166z
					 M37.546,35.179h-1.702v-0.868c0-0.87,0.283-1.307,0.854-1.307c0.564,0,0.849,0.437,0.849,1.307V35.179z M39.25,37.979V37.73
					h-1.74c0,0.684-0.021,1.061-0.036,1.153c-0.098,0.455-0.343,0.683-0.762,0.683c-0.585,0-0.868-0.433-0.868-1.305v-1.664h3.406
					V34.65c0-1.006-0.173-1.741-0.529-2.216c-0.477-0.644-1.154-0.964-2.009-0.964c-0.868,0-1.548,0.32-2.039,0.964
					c-0.364,0.475-0.526,1.21-0.526,2.216v3.293c0,0.997,0.185,1.74,0.547,2.209c0.49,0.643,1.168,0.963,2.062,0.963
					c0.89,0,1.587-0.336,2.06-1.018c0.206-0.301,0.34-0.645,0.397-1.021C39.227,38.906,39.25,38.525,39.25,37.979z"/>
			</g>
		</g>
	</g>
</g>
</svg>
