<?xml version="1.0" encoding="utf-8"?>
<!-- Generator: Adobe Illustrator 16.0.0, SVG Export Plug-In . SVG Version: 6.00 Build 0)  -->
<!DOCTYPE svg PUBLIC "-//W3C//DTD SVG 1.1//EN" "http://www.w3.org/Graphics/SVG/1.1/DTD/svg11.dtd">
<svg version="1.1" id="Capa_1" xmlns="http://www.w3.org/2000/svg" xmlns:xlink="http://www.w3.org/1999/xlink" x="0px" y="0px"
	 width="238px" height="102px" viewBox="0 0 238 102" enable-background="new 0 0 238 102" xml:space="preserve">
<g>
	<rect fill="#FFFFFF" width="238" height="102"/>
	<g>
		<text transform="matrix(1 0 0 1 91.4873 32.9961)" fill="#BBBDBF" font-family="'Hasteristico-Light'" font-size="14.7944">PROYECTO</text>
		<text transform="matrix(1 0 0 1 122.9189 72.6875)" fill="#8A8C8F" font-family="'KeepCalm-Medium'" font-size="19.8661">MUJER</text>
		<text transform="matrix(1 0 0 1 89.1064 52.4346)" fill="#8A8C8F" font-family="'KeepCalm-Medium'" font-size="19.8661">MINISTERIO</text>
		<polyline fill="none" stroke="#EE4765" stroke-width="2" stroke-miterlimit="10" points="88.287,16.531 218.31,16.531 
			218.31,77.085 44.626,77.085 		"/>
		<g>
			<text transform="matrix(1 0 0 1 90.9063 65.5322)" fill="#BBBDBF" font-family="'Hasteristico-Light'" font-size="12.3468">DE LA</text>
		</g>
		<g>
			<text transform="matrix(1 0 0 1 50.8682 88.5342)"><tspan x="0" y="0" fill="#B9BBBD" font-family="'HelveticaNeue-Light'" font-size="9.2394" letter-spacing="1">Nuestra</tspan><tspan x="42.926" y="0" fill="#909295" font-family="'HelveticaNeue-Light'" font-size="9.2394" letter-spacing="1">gestión</tspan><tspan x="84.733" y="0" fill="#B9BBBD" font-family="'HelveticaNeue-Light'" font-size="9.2394" letter-spacing="1">es</tspan><tspan x="96.717" y="0" fill="#909295" font-family="'HelveticaNeue-Light'" font-size="9.2394" letter-spacing="1">una</tspan><tspan x="116.933" y="0" fill="#B9BBBD" font-family="'HelveticaNeue-Light'" font-size="9.2394" letter-spacing="1">realidad</tspan></text>
		</g>
		<g>
			<g>
				
					<linearGradient id="SVGID_1_" gradientUnits="userSpaceOnUse" x1="-1539.2788" y1="-225.3574" x2="-1523.4946" y2="-225.3574" gradientTransform="matrix(0.976 -0.2178 0.2178 0.976 1570.6469 -48.0949)">
					<stop  offset="0.4386" style="stop-color:#FFCA17"/>
					<stop  offset="1" style="stop-color:#F7971F"/>
				</linearGradient>
				<path fill="url(#SVGID_1_)" d="M20.775,74.146c0.215-0.13,8.053-8.524,8.053-8.524l5.252-4.326l-10.6-2.057
					c0,0-1.439-0.354-1.817,0.576C21.274,60.76,20.775,74.146,20.775,74.146z"/>
				
					<linearGradient id="SVGID_2_" gradientUnits="userSpaceOnUse" x1="-1535.3369" y1="-236.8198" x2="-1523.4946" y2="-236.8198" gradientTransform="matrix(0.976 -0.2178 0.2178 0.976 1570.6469 -48.0949)">
					<stop  offset="0.4386" style="stop-color:#FFCA17"/>
					<stop  offset="1" style="stop-color:#F7971F"/>
				</linearGradient>
				<path fill="url(#SVGID_2_)" d="M34.08,61.295L22.087,45.686l-0.931,11.108c0,0-0.348,1.856,1.139,2.465
					C23.781,59.85,34.08,61.295,34.08,61.295z"/>
				
					<linearGradient id="SVGID_3_" gradientUnits="userSpaceOnUse" x1="-1523.6396" y1="-226.418" x2="-1508.3833" y2="-226.418" gradientTransform="matrix(0.976 -0.2178 0.2178 0.976 1570.6469 -48.0949)">
					<stop  offset="0" style="stop-color:#F7971F"/>
					<stop  offset="0.5614" style="stop-color:#FFCA17"/>
				</linearGradient>
				<path fill="url(#SVGID_3_)" d="M34.08,61.295c0,0,7.583-3.377,9.878-4.147c2.285-0.767,4.327-1.569,4.327-1.569
					s0.188,0.467-0.554,0.975c-0.729,0.504-7.543,5.782-8.467,6.654c-0.907,0.883-2.042,2.666-1.909,2.912
					C37.491,66.326,34.134,65.387,34.08,61.295z"/>
				
					<linearGradient id="SVGID_4_" gradientUnits="userSpaceOnUse" x1="-1534.6982" y1="-220.0352" x2="-1521.4242" y2="-223.3968" gradientTransform="matrix(0.976 -0.2178 0.2178 0.976 1570.6469 -48.0949)">
					<stop  offset="0.4386" style="stop-color:#FFCA17"/>
					<stop  offset="1" style="stop-color:#F7971F"/>
				</linearGradient>
				<path fill="url(#SVGID_4_)" d="M25.635,76.472l2.302-9.878c0,0,1.841-2.231,2.597-2.885c0.78-0.67,3.547-2.414,3.547-2.414
					s0.256,2.329,1.172,2.992c0.909,0.648,2.102,1.832,2.102,1.832L25.635,76.472z"/>
			</g>
			<g>
				
					<linearGradient id="SVGID_5_" gradientUnits="userSpaceOnUse" x1="-1422.6025" y1="68.6348" x2="-1398.6289" y2="68.6348" gradientTransform="matrix(0.9032 -0.4292 0.4292 0.9032 1304.2727 -621.9397)">
					<stop  offset="0.4386" style="stop-color:#EA1E51"/>
					<stop  offset="1" style="stop-color:#C42228"/>
				</linearGradient>
				<path fill="url(#SVGID_5_)" d="M53.469,60.38c0.287-0.286,9.063-15.352,9.063-15.352l6.303-8.167l-16.37,0.524
					c0,0-2.265-0.044-2.508,1.466C49.695,40.381,53.469,60.38,53.469,60.38z"/>
				
					<linearGradient id="SVGID_6_" gradientUnits="userSpaceOnUse" x1="-1416.6128" y1="51.2192" x2="-1398.6289" y2="51.2192" gradientTransform="matrix(0.9032 -0.4292 0.4292 0.9032 1304.2727 -621.9397)">
					<stop  offset="0.4386" style="stop-color:#EA1E51"/>
					<stop  offset="1" style="stop-color:#C42228"/>
				</linearGradient>
				<path fill="url(#SVGID_6_)" d="M68.835,36.861L45.809,17.775l2.36,16.765c0,0,0.113,2.87,2.542,3.253
					C53.114,38.181,68.835,36.861,68.835,36.861z"/>
				
					<linearGradient id="SVGID_7_" gradientUnits="userSpaceOnUse" x1="-1398.8438" y1="67.0176" x2="-1375.6621" y2="67.0176" gradientTransform="matrix(0.9032 -0.4292 0.4292 0.9032 1304.2727 -621.9397)">
					<stop  offset="0" style="stop-color:#C42228"/>
					<stop  offset="0.5614" style="stop-color:#EA1E51"/>
				</linearGradient>
				<path fill="url(#SVGID_7_)" d="M68.835,36.861c0,0,10.092-7.576,13.234-9.498c3.145-1.906,5.89-3.76,5.89-3.76
					s0.436,0.613-0.479,1.613c-0.935,0.99-9.255,11.098-10.314,12.718c-1.042,1.604-2.111,4.638-1.843,4.927
					C75.604,43.148,70.302,42.877,68.835,36.861z"/>
				
					<linearGradient id="SVGID_8_" gradientUnits="userSpaceOnUse" x1="-1415.6367" y1="76.709" x2="-1395.4543" y2="71.5979" gradientTransform="matrix(0.9032 -0.4292 0.4292 0.9032 1304.2727 -621.9397)">
					<stop  offset="0.4386" style="stop-color:#EA1E51"/>
					<stop  offset="1" style="stop-color:#C42228"/>
				</linearGradient>
				<path fill="url(#SVGID_8_)" d="M61.445,62.166l0.087-15.405c0,0,1.971-3.923,2.867-5.136c0.936-1.274,4.436-4.764,4.436-4.764
					s1.181,3.348,2.742,4.012c1.573,0.645,3.746,1.988,3.746,1.988L61.445,62.166z"/>
			</g>
			<g>
				
					<linearGradient id="SVGID_9_" gradientUnits="userSpaceOnUse" x1="-1413.875" y1="45.208" x2="-1401.4746" y2="45.208" gradientTransform="matrix(0.8633 -0.5048 0.5048 0.8633 1221.4805 -715.5757)">
					<stop  offset="0.4386" style="stop-color:#4169B0"/>
					<stop  offset="1" style="stop-color:#4478BB"/>
				</linearGradient>
				<path fill="url(#SVGID_9_)" d="M26.519,41.991c0.139-0.153,3.993-8.297,3.993-8.297l2.893-4.493l-8.426,0.994
					c0,0-1.156,0.078-1.223,0.865C23.693,31.849,26.519,41.991,26.519,41.991z"/>
				
					<linearGradient id="SVGID_10_" gradientUnits="userSpaceOnUse" x1="-1410.771" y1="36.2061" x2="-1401.4746" y2="36.2061" gradientTransform="matrix(0.8633 -0.5048 0.5048 0.8633 1221.4805 -715.5757)">
					<stop  offset="0.4386" style="stop-color:#4169B0"/>
					<stop  offset="1" style="stop-color:#4478BB"/>
				</linearGradient>
				<path fill="url(#SVGID_10_)" d="M33.405,29.201L20.69,20.383l1.961,8.524c0,0,0.19,1.479,1.451,1.565
					C25.36,30.576,33.405,29.201,33.405,29.201z"/>
				
					<linearGradient id="SVGID_11_" gradientUnits="userSpaceOnUse" x1="-1401.5869" y1="44.3721" x2="-1389.6006" y2="44.3721" gradientTransform="matrix(0.8633 -0.5048 0.5048 0.8633 1221.4805 -715.5757)">
					<stop  offset="0" style="stop-color:#4478BB"/>
					<stop  offset="0.5614" style="stop-color:#4169B0"/>
				</linearGradient>
				<path fill="url(#SVGID_11_)" d="M33.405,29.201c0,0,4.859-4.365,6.389-5.486c1.535-1.117,2.871-2.199,2.871-2.199
					s0.258,0.305-0.176,0.852c-0.43,0.563-4.276,6.139-4.746,7.016c-0.471,0.877-0.891,2.482-0.737,2.633
					C37.156,32.143,34.421,32.229,33.405,29.201z"/>
				
					<linearGradient id="SVGID_12_" gradientUnits="userSpaceOnUse" x1="-1410.2725" y1="49.3872" x2="-1399.845" y2="46.7465" gradientTransform="matrix(0.8633 -0.5048 0.5048 0.8633 1221.4805 -715.5757)">
					<stop  offset="0.4386" style="stop-color:#4169B0"/>
					<stop  offset="1" style="stop-color:#4478BB"/>
				</linearGradient>
				<path fill="url(#SVGID_12_)" d="M30.709,42.563l-0.642-7.937c0,0,0.855-2.114,1.26-2.777c0.42-0.699,2.077-2.647,2.077-2.647
					s0.751,1.669,1.589,1.938c0.84,0.277,2.012,0.877,2.012,0.877L30.709,42.563z"/>
			</g>
		</g>
	</g>
</g>
</svg>
